<?xml version="1.0" standalone="no"?>
<!DOCTYPE svg PUBLIC "-//W3C//DTD SVG 20010904//EN"
 "http://www.w3.org/TR/2001/REC-SVG-20010904/DTD/svg10.dtd">
<svg version="1.0" xmlns="http://www.w3.org/2000/svg"
 width="1200.000000pt" height="1200.000000pt" viewBox="0 0 1200.000000 1200.000000"
 preserveAspectRatio="xMidYMid meet">
<metadata>
Created by potrace 1.16, written by Peter Selinger 2001-2019
</metadata>
<g transform="translate(0.000000,1200.000000) scale(0.100000,-0.100000)"
fill="#000000" stroke="none">
<path d="M5555 11989 c-1623 -120 -3127 -893 -4168 -2143 -632 -759 -1075
-1676 -1267 -2626 -87 -429 -120 -766 -120 -1220 0 -414 27 -725 96 -1100 338
-1838 1535 -3428 3215 -4270 653 -328 1326 -522 2099 -607 238 -26 942 -26
1180 0 559 61 1025 170 1515 352 805 300 1522 763 2140 1380 1014 1013 1624
2330 1740 3759 20 246 20 726 0 973 -91 1123 -497 2202 -1167 3099 -1055 1411
-2636 2277 -4393 2404 -162 11 -708 11 -870 -1z m875 -100 c1685 -117 3252
-972 4283 -2334 821 -1086 1239 -2416 1186 -3777 -33 -858 -234 -1645 -616
-2408 -287 -575 -617 -1039 -1058 -1489 -207 -210 -348 -339 -549 -499 -918
-732 -2017 -1168 -3201 -1268 -251 -21 -699 -21 -950 0 -1234 104 -2358 565
-3315 1360 -181 150 -581 548 -724 721 -509 612 -875 1273 -1110 2004 -163
507 -254 1028 -275 1579 -57 1457 425 2871 1363 4002 118 143 342 377 511 537
722 680 1619 1168 2590 1411 609 153 1224 206 1865 161z"/>
<path d="M5720 11706 c0 -8 -8 -24 -18 -36 -17 -22 -21 -22 -69 -11 -247 59
-439 -3 -553 -181 -80 -123 -94 -300 -33 -430 40 -84 97 -147 170 -185 83 -44
149 -56 262 -51 127 7 193 33 271 105 56 51 60 58 60 99 0 24 -4 44 -8 44 -4
0 -22 -18 -38 -40 -63 -81 -137 -125 -228 -136 -168 -20 -278 116 -302 373 -9
96 15 202 60 263 64 88 179 125 280 91 52 -18 122 -84 152 -143 25 -50 54 -64
54 -27 0 24 -18 198 -26 247 -5 31 -34 47 -34 18z"/>
<path d="M6250 11674 c-162 -44 -281 -184 -299 -354 -16 -152 20 -270 111
-366 61 -65 120 -98 215 -120 89 -21 217 -14 295 15 63 24 143 91 187 155 116
172 97 421 -45 563 -103 103 -306 149 -464 107z m225 -53 c96 -43 130 -128
129 -316 -3 -273 -74 -413 -215 -423 -117 -9 -186 67 -210 231 -13 87 0 245
26 335 23 75 73 143 125 170 53 27 92 28 145 3z"/>
<path d="M4640 11534 c-102 -24 -195 -46 -207 -49 -13 -3 -23 -12 -23 -21 0
-12 8 -14 43 -9 78 12 78 11 162 -353 41 -177 75 -331 75 -341 0 -23 -45 -61
-71 -61 -21 0 -35 -18 -23 -30 8 -8 418 81 430 93 15 14 -10 24 -48 20 -35 -4
-47 -1 -62 16 -14 15 -41 116 -93 339 -40 174 -73 327 -73 339 0 24 43 63 70
63 9 0 19 3 23 6 7 7 -2 34 -12 33 -3 -1 -89 -21 -191 -45z"/>
<path d="M7335 11540 c-8 -13 3 -30 19 -30 22 0 66 -40 66 -61 0 -11 -45 -160
-101 -332 -107 -335 -122 -364 -175 -351 -41 10 -57 10 -61 -3 -3 -8 72 -37
214 -83 264 -86 344 -97 461 -61 164 50 277 224 275 426 -2 143 -63 249 -186
323 -31 19 -154 66 -279 108 -123 41 -224 74 -225 74 -1 0 -5 -4 -8 -10z m371
-176 c119 -56 149 -189 88 -394 -44 -149 -132 -268 -214 -290 -68 -18 -160 10
-160 49 0 12 171 553 205 649 6 17 19 15 81 -14z"/>
<path d="M4133 11398 c-129 -53 -161 -83 -79 -72 52 8 80 -6 103 -49 20 -39
142 -341 139 -344 -2 -2 -126 67 -276 152 -193 109 -280 153 -293 149 -87 -27
-253 -104 -255 -118 -3 -14 3 -16 35 -11 25 3 50 -1 73 -13 33 -16 41 -31 137
-267 154 -376 156 -386 88 -427 -31 -18 -48 -48 -27 -48 12 0 266 102 276 112
19 16 -9 29 -39 18 -36 -14 -85 2 -104 32 -18 28 -211 502 -206 506 2 2 170
-89 374 -202 340 -189 422 -228 408 -193 -174 423 -270 671 -274 703 -5 37 -2
43 32 71 21 17 34 36 31 42 -10 15 -7 16 -143 -41z"/>
<path d="M8244 11219 c-4 -8 0 -17 10 -23 46 -28 66 -49 66 -71 0 -27 -239
-548 -280 -610 -28 -42 -40 -46 -107 -30 -25 6 -33 4 -33 -6 1 -12 375 -194
398 -194 4 0 8 8 10 18 2 10 -3 17 -11 17 -8 0 -26 12 -42 26 -21 20 -26 31
-22 53 8 41 256 570 285 610 26 34 38 36 110 15 15 -4 22 -2 22 8 0 9 -74 49
-192 104 -105 49 -194 90 -199 92 -4 2 -11 -3 -15 -9z"/>
<path d="M3275 11024 c-6 -2 -9 -19 -7 -37 5 -43 -6 -51 -97 -71 -106 -24
-177 -62 -246 -131 -178 -178 -181 -461 -6 -636 81 -80 152 -112 263 -117 104
-5 155 6 252 56 116 61 194 153 225 270 10 36 9 47 -6 72 -9 17 -20 30 -24 30
-4 0 -13 -24 -19 -52 -47 -198 -225 -313 -369 -239 -129 67 -262 263 -277 409
-15 140 83 264 222 280 57 6 144 -23 193 -64 25 -22 45 -32 56 -28 9 4 15 10
13 14 -8 20 -154 250 -158 249 -3 0 -10 -3 -15 -5z"/>
<path d="M9192 10583 c-52 -66 -67 -91 -60 -101 9 -10 15 -9 32 3 39 29 101
55 132 55 29 0 107 -42 131 -71 10 -12 -27 -62 -203 -279 -118 -146 -222 -271
-231 -277 -24 -18 -35 -16 -76 11 -29 20 -38 22 -47 12 -14 -18 326 -294 342
-278 8 8 2 21 -21 47 -36 41 -37 51 -14 85 21 30 389 487 414 514 17 18 18 18
59 -14 71 -56 85 -111 54 -204 -12 -35 -13 -51 -5 -59 6 -6 12 -9 14 -6 2 2
34 42 72 88 49 60 66 87 59 97 -12 17 -565 464 -575 464 -4 0 -39 -39 -77 -87z"/>
<path d="M6069 10582 c-27 -24 -33 -37 -37 -84 -4 -53 -2 -58 31 -94 33 -36
39 -39 92 -39 53 0 59 3 91 37 27 30 34 46 34 78 0 84 -45 130 -127 130 -44 0
-58 -5 -84 -28z"/>
<path d="M6435 10580 c-88 -36 -97 -182 -14 -225 103 -54 214 29 189 140 -4
19 -14 42 -21 51 -32 38 -105 55 -154 34z"/>
<path d="M6734 10507 c-26 -23 -37 -43 -41 -73 -11 -83 44 -144 130 -144 81 0
136 72 117 155 -14 62 -59 95 -130 95 -32 0 -48 -7 -76 -33z"/>
<path d="M5695 10496 c-85 -41 -524 -327 -617 -402 -194 -156 -295 -307 -355
-529 -24 -91 -27 -117 -27 -285 -1 -143 3 -204 17 -270 68 -312 233 -641 537
-1065 32 -44 63 -98 70 -120 6 -22 15 -125 20 -230 4 -104 11 -198 15 -207 19
-47 108 -27 174 40 150 152 176 436 71 789 -34 116 -47 198 -32 207 6 3 41 -9
79 -27 61 -29 68 -36 71 -64 2 -17 10 -37 18 -43 9 -8 14 -33 14 -74 1 -90 14
-137 49 -168 l31 -28 0 -163 c0 -189 0 -189 -94 -242 -62 -35 -86 -64 -86
-108 0 -57 207 -191 380 -245 194 -62 378 -56 521 16 80 41 96 65 84 128 -5
28 -16 41 -51 62 -24 15 -50 40 -58 57 -7 16 -17 77 -20 135 -9 131 -4 138
108 150 116 13 136 35 136 144 0 54 3 66 25 86 14 13 25 33 25 45 0 34 27 62
90 96 39 21 62 40 66 54 3 12 -2 74 -11 136 -27 179 -30 251 -11 288 15 29 20
31 70 31 99 0 226 57 226 101 0 13 -37 59 -95 119 -77 79 -95 104 -95 128 0
25 -43 79 -256 318 -141 159 -263 296 -272 304 -9 8 -30 34 -45 58 -34 53 -90
89 -210 137 -147 59 -202 98 -231 163 -8 20 -36 131 -61 246 -25 115 -51 216
-58 224 -17 22 -71 42 -109 42 -19 0 -65 -15 -103 -34z m130 -132 c27 -29 41
-82 55 -209 5 -49 14 -105 20 -124 5 -19 9 -35 7 -36 -1 -1 -46 -16 -101 -34
-294 -96 -503 -252 -625 -466 -111 -194 -106 -425 16 -673 25 -51 70 -128 101
-170 41 -57 57 -90 63 -127 8 -47 26 -88 128 -280 52 -98 73 -203 74 -365 1
-92 -3 -129 -21 -186 -22 -71 -87 -184 -107 -184 -6 0 -10 41 -11 108 -1 130
-25 226 -89 357 -46 93 -73 136 -267 421 -145 213 -199 323 -232 469 -95 418
-65 724 91 943 160 225 384 390 763 565 55 25 107 22 135 -9z m280 -519 c33
-8 94 -32 135 -52 85 -42 173 -125 375 -353 66 -74 159 -177 208 -229 48 -52
85 -96 83 -99 -11 -10 -89 48 -105 79 -45 84 -114 89 -140 9 -9 -29 -11 -48
-4 -59 5 -9 88 -57 184 -106 131 -69 187 -104 232 -147 53 -50 58 -58 47 -77
-6 -12 -23 -27 -38 -32 -40 -15 -157 -1 -230 28 -128 50 -314 39 -446 -26 -47
-23 -64 -27 -89 -20 -45 13 -75 46 -91 103 -15 52 -47 96 -69 96 -7 0 -41 -14
-77 -31 -54 -25 -90 -56 -215 -183 -87 -89 -168 -162 -193 -175 l-42 -22 -48
33 c-204 139 -342 385 -345 612 0 68 4 93 28 151 68 164 225 346 362 417 57
30 179 73 258 91 45 10 165 6 220 -8z m13 -1031 c32 -22 57 -78 76 -168 15
-74 15 -80 -3 -120 -28 -63 -70 -106 -185 -185 -57 -40 -112 -81 -121 -91 -22
-25 -41 -25 -54 -2 -11 21 -33 147 -32 183 2 42 27 105 66 163 42 64 202 236
219 236 6 0 22 -7 34 -16z m694 -105 l43 -24 6 -120 c3 -66 10 -166 14 -221
l7 -101 -38 -8 c-53 -9 -73 -22 -84 -51 -9 -22 -14 -24 -49 -18 -33 5 -41 3
-50 -14 -9 -18 -6 -23 25 -43 20 -12 32 -24 26 -28 -20 -13 -32 -53 -32 -109
0 -46 -4 -63 -19 -76 -20 -19 -21 -19 -173 0 -76 9 -92 -3 -72 -51 8 -20 16
-88 20 -167 7 -156 30 -221 89 -258 19 -12 35 -26 35 -32 0 -21 -68 -77 -111
-89 -63 -19 -239 -17 -319 5 -36 9 -112 40 -168 68 -81 39 -110 60 -133 91
-37 51 -36 68 1 95 35 27 77 105 85 159 3 21 10 101 15 178 13 211 14 212 184
349 178 143 216 190 241 301 l11 50 90 38 c49 21 105 51 124 65 51 40 59 42
127 38 40 -2 76 -12 105 -27z"/>
<path d="M6522 9381 c-18 -11 -42 -96 -42 -148 0 -53 14 -83 39 -83 23 0 97
49 138 92 32 33 32 33 16 66 -32 65 -106 102 -151 73z"/>
<path d="M6630 8634 c-41 -18 -84 -34 -94 -34 -18 0 -18 -1 -2 -19 20 -22 138
-78 184 -87 30 -6 33 -4 52 41 25 58 15 78 -28 54 -18 -10 -39 -13 -62 -9
l-35 7 58 27 c46 22 66 27 95 21 l37 -7 -19 21 c-29 32 -95 27 -186 -15z"/>
<path d="M4944 10476 c-29 -29 -34 -41 -34 -80 0 -58 21 -101 60 -121 87 -45
190 15 190 110 0 78 -51 125 -136 125 -39 0 -51 -5 -80 -34z"/>
<path d="M7082 10453 c-41 -20 -62 -59 -62 -117 0 -119 160 -167 227 -67 42
62 26 136 -36 178 -40 27 -83 29 -129 6z"/>
<path d="M2210 10234 c-298 -261 -277 -241 -262 -256 9 -9 17 -7 34 9 34 32
73 38 95 16 29 -29 354 -402 406 -466 26 -32 47 -64 47 -72 0 -8 -14 -30 -31
-50 -23 -26 -29 -39 -21 -47 7 -7 87 56 276 221 146 127 268 236 271 242 7 10
-76 150 -122 207 -32 40 -49 18 -27 -34 26 -59 23 -149 -5 -204 -28 -53 -124
-148 -159 -157 -22 -5 -34 3 -81 53 -31 33 -78 85 -105 117 -53 62 -53 74 5
97 39 17 99 0 151 -41 39 -31 53 -35 63 -19 5 8 -160 207 -271 329 -7 7 -20
11 -29 7 -14 -5 -13 -11 9 -48 51 -90 51 -154 -1 -201 -20 -17 -22 -15 -125
104 l-105 122 61 53 c114 100 183 114 275 56 50 -30 71 -34 71 -11 0 14 -150
183 -164 186 -6 1 -121 -95 -256 -213z"/>
<path d="M4642 10410 c-70 -43 -78 -136 -17 -197 28 -28 40 -33 80 -33 57 0
100 23 120 66 55 117 -73 231 -183 164z"/>
<path d="M7389 10347 c-100 -67 -52 -227 68 -227 86 0 141 61 130 144 -13 92
-119 136 -198 83z"/>
<path d="M4328 10304 c-78 -42 -76 -178 2 -219 115 -60 235 60 175 175 -29 55
-117 77 -177 44z"/>
<path d="M7703 10230 c-42 -25 -53 -48 -53 -110 0 -46 4 -56 34 -86 29 -29 41
-34 80 -34 61 0 99 21 120 64 57 120 -68 235 -181 166z"/>
<path d="M4018 10172 c-101 -62 -55 -232 62 -232 71 0 116 33 130 95 19 84
-36 155 -118 155 -26 0 -59 -8 -74 -18z"/>
<path d="M8024 10100 c-11 -4 -33 -22 -47 -40 -21 -25 -27 -42 -27 -82 0 -43
4 -54 33 -83 41 -41 90 -52 140 -31 65 27 96 113 64 176 -27 54 -106 83 -163
60z"/>
<path d="M3719 10017 c-101 -68 -53 -227 68 -227 55 0 98 24 118 66 56 119
-77 234 -186 161z"/>
<path d="M9810 9946 c-78 -21 -143 -59 -205 -121 -183 -183 -178 -436 13 -629
102 -103 229 -147 361 -127 201 31 350 175 382 369 22 133 -19 249 -130 373
-112 124 -273 176 -421 135z m327 -137 c15 -5 41 -22 56 -37 100 -94 74 -216
-77 -367 -188 -187 -354 -249 -453 -168 -78 62 -92 147 -42 248 27 57 168 204
244 255 102 70 203 95 272 69z"/>
<path d="M8305 9931 c-57 -24 -83 -117 -51 -179 42 -82 172 -83 220 -2 34 58
12 146 -44 175 -31 16 -92 19 -125 6z"/>
<path d="M3453 9855 c-97 -42 -94 -191 4 -232 53 -22 101 -11 141 32 27 29 32
42 32 84 0 57 -25 96 -76 117 -41 17 -60 17 -101 -1z"/>
<path d="M1586 9581 c-124 -154 -229 -286 -232 -294 -8 -21 167 -159 184 -145
10 9 10 15 -3 32 -66 91 -70 141 -18 220 21 31 41 55 45 54 6 -2 395 -316 526
-424 31 -25 32 -65 4 -104 -17 -22 -19 -30 -8 -39 17 -14 294 325 278 341 -8
8 -22 2 -47 -21 -41 -36 -51 -37 -85 -14 -44 30 -530 425 -530 431 0 3 12 21
26 39 54 71 116 88 208 57 35 -12 51 -13 59 -5 6 6 9 12 6 14 -2 2 -41 33 -85
70 -45 37 -86 67 -92 67 -5 0 -111 -126 -236 -279z"/>
<path d="M8583 9744 c-45 -22 -67 -61 -67 -114 0 -55 23 -93 71 -115 69 -33
147 0 173 73 28 80 -22 158 -106 168 -25 3 -51 -1 -71 -12z"/>
<path d="M3166 9651 c-38 -26 -55 -57 -56 -104 -1 -99 99 -159 189 -113 81 43
82 179 1 221 -40 21 -99 19 -134 -4z"/>
<path d="M8839 9535 c-40 -22 -59 -58 -59 -116 0 -45 4 -55 34 -85 29 -29 40
-34 83 -34 57 1 87 16 114 56 37 57 18 143 -41 178 -34 20 -96 20 -131 1z"/>
<path d="M2920 9442 c-38 -20 -70 -72 -70 -112 0 -14 8 -41 18 -59 53 -99 194
-88 232 17 13 37 13 47 0 84 -27 75 -110 108 -180 70z"/>
<path d="M10540 9388 c0 -7 7 -22 15 -32 27 -35 19 -71 -22 -104 -104 -81
-539 -362 -560 -362 -14 0 -36 13 -53 32 -22 23 -33 29 -41 21 -9 -9 88 -164
223 -358 5 -6 11 -6 18 1 9 9 8 20 -4 42 -33 64 -26 73 133 181 80 54 107 68
118 60 31 -26 2 -177 -63 -327 -60 -138 -58 -167 14 -275 34 -49 57 -74 66
-71 11 4 12 12 4 39 -9 29 -7 37 15 67 43 56 88 164 99 235 5 38 12 78 14 89
l4 22 42 -22 c33 -16 61 -21 120 -21 69 0 80 3 120 30 99 70 122 192 59 314
-52 101 -290 451 -306 451 -8 0 -15 -6 -15 -12z m226 -415 c9 -46 -1 -77 -38
-118 -36 -41 -115 -85 -153 -85 -41 0 -82 26 -125 81 -22 28 -40 54 -40 59 0
4 64 51 142 104 l142 96 33 -52 c18 -28 36 -67 39 -85z"/>
<path d="M9101 9317 c-50 -18 -76 -58 -76 -117 0 -61 27 -100 83 -120 107 -37
206 71 157 173 -29 61 -98 88 -164 64z"/>
<path d="M2661 9194 c-116 -97 5 -278 140 -209 36 19 69 70 69 108 0 41 -24
91 -53 110 -42 27 -119 23 -156 -9z"/>
<path d="M1221 9082 c-174 -280 -175 -283 -161 -292 10 -6 19 -1 32 17 27 43
57 54 93 36 64 -32 531 -327 558 -351 32 -31 33 -36 8 -85 -17 -33 -17 -39 -5
-44 8 -3 16 -4 18 -2 2 2 54 85 115 183 74 118 109 182 102 189 -6 6 -22 -3
-44 -27 -19 -20 -40 -36 -46 -36 -20 0 -66 27 -339 198 -285 178 -299 191
-269 244 9 16 17 36 17 44 0 34 -29 7 -79 -74z"/>
<path d="M9309 9065 c-31 -17 -59 -71 -59 -113 0 -35 36 -92 70 -109 66 -34
155 2 178 71 28 85 -29 166 -116 166 -26 -1 -59 -7 -73 -15z"/>
<path d="M2984 9004 c-9 -33 2 -136 32 -318 13 -81 24 -167 24 -190 0 -23 7
-51 15 -62 8 -10 15 -35 15 -54 1 -37 5 -50 60 -180 26 -62 50 -100 93 -146
31 -34 57 -67 57 -73 0 -13 -31 -8 -108 20 -56 20 -128 25 -152 9 -12 -7 -9
-17 20 -57 162 -230 327 -413 464 -515 141 -105 308 -168 444 -168 112 0 62
-10 -129 -25 -101 -9 -192 -18 -202 -21 -18 -6 -18 -6 0 -26 36 -40 134 -110
216 -153 133 -70 311 -125 492 -150 l49 -7 -39 -24 c-22 -13 -44 -25 -50 -27
-16 -6 57 -65 125 -101 104 -55 242 -86 445 -101 166 -12 194 -16 189 -30 -3
-7 -21 -21 -40 -31 -19 -10 -34 -23 -34 -28 0 -25 131 -93 219 -112 36 -8 145
-17 241 -21 172 -5 177 -5 298 26 119 29 125 30 165 15 59 -22 169 -38 211
-30 19 4 50 19 67 33 41 35 76 33 163 -6 76 -34 79 -35 194 -33 78 2 85 4 113
31 l29 29 58 -20 c77 -27 161 -22 198 13 36 33 67 104 59 136 -7 28 -7 28 81
2 24 -7 49 -9 60 -4 10 4 46 8 79 9 50 1 69 7 112 34 40 25 71 36 125 43 90
12 133 28 223 84 105 64 130 75 208 90 65 12 76 18 112 58 23 24 47 64 55 87
11 32 22 46 43 54 28 11 29 13 23 59 -7 52 -7 53 59 36 40 -10 49 -8 102 16
86 41 95 51 87 102 -9 62 10 86 93 114 46 15 79 33 101 56 43 46 43 82 -3 130
l-34 36 35 49 c25 33 34 55 31 70 -14 53 65 109 219 152 72 20 95 31 122 60
35 40 42 79 16 107 -15 17 -14 20 10 43 17 18 36 26 58 26 38 0 78 24 78 46 0
17 7 18 -85 -5 -104 -26 -119 -41 -111 -108 6 -50 5 -53 -27 -77 -43 -33 -113
-63 -163 -72 -34 -5 -42 -3 -48 12 -8 21 51 86 96 105 28 11 28 12 12 36 -9
14 -13 35 -10 47 6 23 83 102 121 124 19 11 19 12 -9 35 -41 34 -30 63 54 145
53 51 70 75 70 95 0 34 -5 34 -59 -3 -34 -23 -47 -27 -57 -19 -8 6 -14 18 -14
25 0 30 -19 12 -25 -23 -16 -103 -44 -183 -64 -183 -5 0 -11 14 -14 30 -4 18
-13 30 -22 30 -12 0 -15 -12 -15 -55 0 -86 -59 -195 -106 -195 -21 0 -23 -4
-18 -30 26 -129 -87 -4 -126 138 -9 34 -8 47 1 58 10 13 17 11 44 -16 37 -36
67 -38 88 -7 32 49 26 92 -24 158 -72 95 -85 154 -39 179 15 8 29 6 59 -10 54
-27 97 -26 115 3 27 40 28 72 7 130 -12 32 -30 82 -41 112 -14 39 -17 59 -10
68 6 6 19 24 30 38 32 43 71 29 155 -57 94 -97 126 -98 141 -5 4 23 14 52 24
63 l17 21 41 -37 c53 -48 65 -88 46 -158 -23 -86 -19 -115 21 -159 56 -62 48
-79 -76 -162 -76 -51 -114 -100 -98 -128 8 -15 21 -19 65 -19 45 0 59 -4 80
-25 34 -34 54 -32 54 4 0 33 -39 71 -72 71 -31 0 -16 22 38 57 27 18 62 47 78
64 27 30 28 36 24 107 -3 70 -5 76 -37 102 l-33 28 7 88 6 89 -46 58 c-77 97
-123 101 -169 18 -30 -55 -41 -67 -51 -51 -4 6 -29 29 -57 50 -44 35 -56 40
-101 40 -66 0 -97 -16 -119 -60 -24 -46 -23 -82 5 -178 27 -91 23 -102 -33
-102 -54 0 -108 -18 -125 -43 -36 -51 -10 -152 61 -235 27 -33 32 -43 21 -48
-8 -3 -26 6 -40 20 -15 14 -30 26 -35 26 -15 0 -39 -24 -71 -72 -17 -26 -47
-55 -66 -64 -61 -29 -115 -103 -115 -159 0 -26 -57 -111 -108 -162 -26 -26
-42 -33 -72 -33 -31 0 -44 -6 -69 -36 -18 -20 -34 -49 -38 -65 -7 -35 -18 -37
-34 -6 -17 31 -28 37 -80 37 -32 0 -55 -6 -73 -21 -46 -36 -56 -69 -56 -184 0
-103 -5 -120 -30 -90 -16 19 -40 19 -68 -1 -31 -21 -53 -67 -72 -149 l-16 -69
-34 39 c-87 99 -112 114 -163 101 -39 -9 -121 -98 -136 -145 -14 -47 -43 -70
-124 -96 -45 -15 -51 -15 -67 0 -10 9 -24 30 -31 47 -11 27 -16 30 -46 25 -49
-8 -110 -40 -165 -85 -45 -38 -49 -39 -87 -29 -57 15 -83 -7 -148 -122 -28
-52 -56 -98 -61 -103 -6 -6 -16 1 -28 21 -36 61 -82 51 -168 -35 -35 -35 -66
-64 -69 -64 -3 0 -18 7 -33 15 -35 18 -66 19 -150 4 l-62 -11 -88 70 c-247
194 -468 306 -647 327 l-59 8 28 -54 c39 -78 72 -118 213 -261 69 -70 123
-130 120 -132 -3 -3 -27 5 -55 18 -40 19 -65 42 -119 112 -188 241 -463 458
-795 626 l-135 69 -3 -51 c-2 -35 7 -88 28 -162 29 -106 34 -153 9 -92 -101
247 -236 442 -445 644 -82 80 -221 194 -271 224 -8 4 -20 -5 -33 -26 -16 -27
-20 -50 -20 -125 0 -50 -4 -94 -9 -97 -5 -3 -12 45 -15 107 -15 227 -48 405
-106 572 -42 116 -78 188 -153 303 -51 78 -65 92 -87 92 -32 0 -49 -18 -84
-87 -14 -29 -32 -53 -39 -53 -7 0 -26 14 -43 31 -36 39 -123 109 -135 109 -5
0 -12 -12 -15 -26z m376 -140 c52 -77 109 -212 156 -373 28 -96 45 -281 26
-281 -16 0 -35 39 -98 207 -67 179 -111 271 -165 342 -37 48 -40 57 -34 94 6
34 42 87 59 87 3 0 28 -34 56 -76z m-110 -213 c38 -56 62 -112 104 -240 92
-280 88 -354 -17 -317 -78 27 -177 190 -216 357 -11 46 -27 149 -36 229 -8 80
-17 156 -19 170 -3 20 10 10 66 -50 38 -41 92 -108 118 -149z m5123 -502 c52
-27 63 -46 57 -96 -4 -43 -8 -48 -32 -51 -15 -2 -40 4 -57 13 -27 14 -31 21
-31 58 0 23 7 53 16 65 18 25 18 26 47 11z m-4548 -104 c141 -100 307 -280
379 -408 43 -77 63 -132 72 -199 l7 -51 -39 7 c-55 9 -174 69 -205 103 -47 50
-200 266 -229 323 -15 30 -35 79 -44 109 -16 53 -22 161 -10 161 4 0 35 -20
69 -45z m-431 -221 c62 -16 126 -66 126 -98 0 -20 86 -76 116 -76 21 0 21 -3
17 -65 -7 -75 6 -114 49 -150 40 -33 66 -32 160 11 95 43 119 40 148 -16 34
-67 31 -70 -66 -70 -238 0 -445 127 -673 414 -39 49 -71 93 -71 96 0 4 30 -1
68 -11 37 -11 94 -26 126 -35z m4715 -54 c27 -6 57 -20 67 -31 23 -26 34 -24
127 17 87 40 140 42 178 8 27 -25 24 -52 -16 -114 -19 -30 -35 -57 -35 -60 1
-13 17 -28 48 -44 18 -10 32 -23 29 -29 -7 -23 -69 -56 -125 -67 -98 -18 -134
-31 -158 -55 -47 -47 -22 -85 55 -85 46 0 51 -11 25 -50 -39 -58 -64 -62 -148
-25 -69 31 -103 32 -133 3 -29 -27 -29 -45 -2 -74 29 -30 16 -48 -31 -41 -46
6 -152 75 -148 96 5 23 86 81 114 81 14 0 41 7 60 15 53 22 37 48 -39 60 -34
5 -36 8 -26 26 16 31 71 49 149 49 63 0 74 3 97 26 l26 26 -22 17 -22 17 26
14 c29 15 75 65 75 81 0 16 -60 10 -100 -11 -22 -11 -54 -20 -73 -20 -26 0
-37 -6 -47 -25 -7 -14 -36 -36 -64 -50 l-50 -25 -21 26 c-14 18 -28 25 -45 22
-20 -2 -26 -13 -40 -68 -27 -105 -75 -179 -109 -164 -9 4 -27 7 -41 8 -23 1
-25 -2 -22 -40 1 -26 -3 -46 -12 -53 -19 -16 -76 -3 -76 18 1 44 21 164 30
181 10 19 12 18 57 -10 55 -35 107 -40 123 -11 16 30 12 83 -11 168 -18 64
-19 82 -10 115 14 46 51 74 78 60 10 -6 36 -29 58 -51 43 -45 73 -51 100 -21
14 16 16 29 11 74 -9 68 -1 85 25 52 12 -15 38 -29 68 -36z m-3428 -347 c149
-81 308 -224 399 -360 57 -85 55 -103 -10 -103 l-37 0 -5 74 c-6 87 -27 130
-78 157 -62 34 -80 28 -192 -63 l-28 -22 -26 25 c-78 71 -197 264 -218 351
l-6 28 66 -25 c37 -14 98 -42 135 -62z m2258 -268 c42 -82 60 -93 98 -61 47
38 71 48 92 36 48 -25 66 -94 36 -137 -8 -12 -44 -42 -80 -68 -36 -25 -65 -52
-65 -59 0 -6 25 -36 56 -65 65 -62 70 -96 19 -120 -27 -13 -36 -12 -107 14
-86 30 -132 29 -163 -5 -25 -28 -13 -63 40 -106 36 -29 43 -39 34 -50 -15 -18
-46 -18 -99 1 -23 8 -51 15 -62 15 -11 0 -40 18 -65 40 -74 65 -114 53 -150
-45 -25 -68 -51 -71 -122 -13 l-53 43 61 9 c67 10 79 27 41 61 -16 14 -18 21
-8 33 17 20 140 13 166 -11 22 -20 55 -22 70 -4 9 10 4 23 -20 52 l-32 38 21
17 c14 11 48 19 95 23 93 7 108 13 115 49 5 25 18 35 78 65 57 28 72 40 71 57
-1 23 -26 26 -78 11 -25 -6 -28 -5 -28 18 0 47 -21 41 -81 -26 -63 -69 -113
-97 -177 -97 -30 0 -43 -7 -66 -32 -32 -37 -46 -27 -46 35 0 40 17 80 59 137
14 19 26 37 28 39 1 2 17 -6 36 -18 19 -11 41 -21 49 -21 19 0 67 52 107 118
30 47 74 92 90 92 3 0 21 -29 40 -65z m-2584 -5 c69 -22 169 -72 181 -91 14
-23 -150 -68 -248 -69 -128 0 -312 55 -422 129 l-59 40 34 5 c70 12 118 14
279 11 138 -2 177 -6 235 -25z m1073 -32 c153 -63 280 -145 356 -231 53 -59
64 -85 50 -121 -9 -25 -36 -19 -116 22 -162 83 -428 313 -428 370 0 6 3 12 6
12 3 0 63 -23 132 -52z m2492 -30 c44 -22 45 -25 48 -74 3 -46 0 -54 -24 -73
-15 -12 -35 -21 -45 -21 -31 0 -99 31 -109 51 -19 34 -12 88 15 114 30 31 58
31 115 3z m-356 -170 c20 -23 36 -47 36 -54 0 -7 -12 -26 -26 -43 -23 -27 -32
-31 -79 -31 -71 0 -82 14 -66 83 23 99 74 116 135 45z m-2439 -59 c95 -28 104
-45 48 -84 -91 -62 -248 -81 -418 -51 -175 32 -310 70 -300 87 8 12 125 48
207 64 116 22 361 13 463 -16z m683 -263 c14 -14 14 -17 -2 -35 -10 -10 -41
-30 -69 -42 -49 -22 -65 -23 -252 -24 -123 0 -236 5 -294 14 l-94 14 44 23
c114 57 224 74 463 70 155 -3 191 -7 204 -20z"/>
<path d="M2484 8969 c-103 -29 -124 -166 -35 -226 84 -57 201 6 201 108 0 79
-86 140 -166 118z"/>
<path d="M9558 8823 c-39 -6 -85 -53 -93 -96 -10 -50 0 -84 34 -118 100 -99
266 14 204 138 -29 58 -80 85 -145 76z"/>
<path d="M2260 8697 c-34 -17 -70 -74 -70 -109 0 -44 29 -97 61 -113 107 -56
224 38 187 151 -23 69 -112 105 -178 71z"/>
<path d="M9720 8537 c-13 -7 -35 -28 -48 -47 -19 -28 -23 -44 -19 -80 15 -135
209 -152 248 -22 30 105 -83 198 -181 149z"/>
<path d="M11148 8434 c-4 -3 -2 -19 4 -34 5 -16 8 -41 6 -57 -3 -31 -30 -44
-442 -217 -229 -97 -239 -98 -271 -36 -14 27 -45 42 -45 22 0 -4 37 -95 83
-202 54 -127 88 -195 97 -195 8 0 13 7 11 15 -2 8 -6 34 -8 56 -5 36 -2 44 18
57 49 31 623 268 643 265 12 -2 32 -20 45 -40 22 -34 51 -51 51 -30 0 18 -166
396 -176 399 -5 2 -13 1 -16 -3z"/>
<path d="M1466 8413 c-4 -10 10 -33 43 -68 103 -109 113 -170 51 -304 -52
-110 -59 -115 -119 -91 -72 29 -564 261 -579 273 -14 11 -12 48 3 110 5 20 4
27 -6 27 -9 0 -52 -82 -108 -201 -72 -156 -90 -204 -81 -213 9 -8 14 -8 17 2
11 29 56 72 76 72 11 0 129 -50 261 -111 416 -193 409 -188 381 -256 -11 -25
-12 -40 -5 -47 6 -6 13 -6 19 -1 13 15 315 665 310 669 -7 6 -213 132 -236
144 -17 10 -22 9 -27 -5z"/>
<path d="M2073 8414 c-56 -28 -80 -113 -49 -173 22 -42 58 -61 117 -61 45 0
55 4 85 34 29 29 34 41 34 80 0 26 -7 60 -15 76 -29 56 -107 76 -172 44z"/>
<path d="M9879 8245 c-31 -17 -59 -70 -59 -112 0 -95 119 -155 201 -100 102
68 53 228 -69 227 -26 -1 -59 -7 -73 -15z"/>
<path d="M1909 8117 c-61 -41 -77 -113 -39 -175 43 -70 136 -78 197 -17 28 28
33 40 33 80 0 57 -23 100 -66 120 -45 21 -86 19 -125 -8z"/>
<path d="M10050 7957 c-65 -23 -100 -113 -67 -177 7 -13 28 -35 47 -48 52 -35
113 -26 157 22 28 30 33 43 33 85 0 61 -33 105 -88 121 -44 12 -38 12 -82 -3z"/>
<path d="M11366 7831 c6 -30 -13 -78 -41 -101 -19 -16 -585 -170 -623 -170
-27 0 -82 50 -82 74 0 10 -9 16 -21 16 -15 0 -19 -5 -15 -17 3 -10 19 -70 36
-133 17 -63 33 -123 36 -132 9 -31 33 -9 27 25 -7 45 11 83 46 101 32 17 510
148 522 144 4 -2 -107 -160 -247 -352 -140 -192 -254 -353 -254 -357 0 -20 30
-14 231 40 550 149 555 150 586 85 10 -20 23 -34 32 -32 8 2 15 5 15 8 0 3
-15 65 -34 138 -26 98 -38 132 -49 130 -10 -2 -15 -18 -15 -52 -1 -41 -5 -52
-28 -69 -24 -18 -377 -121 -386 -113 -2 2 80 117 183 256 l187 251 -39 144
c-30 116 -41 145 -55 145 -14 0 -16 -6 -12 -29z"/>
<path d="M1762 7814 c-99 -69 -44 -234 78 -234 116 0 169 149 79 224 -24 21
-41 26 -83 26 -30 0 -61 -6 -74 -16z"/>
<path d="M793 7720 c-68 -14 -150 -58 -204 -111 -61 -60 -102 -144 -126 -261
-15 -75 -16 -97 -5 -158 23 -136 102 -244 223 -304 178 -89 383 -62 514 69
129 129 171 360 96 520 -83 179 -298 284 -498 245z m152 -235 c127 -32 212
-73 263 -129 52 -57 65 -101 48 -167 -16 -60 -46 -95 -106 -122 -131 -60 -471
21 -579 138 -65 70 -73 135 -28 218 54 98 183 118 402 62z"/>
<path d="M10171 7643 c-51 -26 -74 -64 -74 -116 1 -54 23 -90 68 -111 64 -31
130 -12 165 47 66 108 -49 237 -159 180z"/>
<path d="M1665 7511 c-76 -31 -93 -152 -31 -210 34 -32 108 -40 152 -16 108
58 64 236 -58 234 -24 0 -52 -4 -63 -8z"/>
<path d="M10264 7325 c-68 -35 -87 -139 -36 -195 80 -90 222 -34 222 87 0 90
-103 150 -186 108z"/>
<path d="M2975 7243 c-5 -26 -107 -177 -358 -530 -329 -460 -355 -493 -395
-509 -36 -14 -41 -20 -36 -38 3 -12 18 -34 34 -51 23 -26 25 -34 17 -57 -7
-18 -6 -71 3 -171 17 -190 11 -269 -26 -336 -15 -29 -36 -57 -46 -62 -17 -9
-16 -13 16 -50 43 -50 50 -89 41 -222 -3 -56 -2 -124 3 -151 11 -55 3 -89 -25
-102 -10 -4 -56 -10 -103 -13 -76 -5 -85 -8 -88 -27 -2 -14 5 -24 23 -32 32
-15 32 -38 0 -46 -23 -6 -25 -11 -25 -69 0 -91 24 -108 86 -61 64 49 65 42 62
-212 -3 -224 -3 -226 -27 -245 -13 -10 -27 -19 -31 -19 -4 0 -10 29 -12 65 -6
72 -20 98 -52 93 -20 -3 -21 -10 -24 -108 -1 -58 2 -112 7 -119 10 -15 405
-24 1401 -31 190 -2 375 -8 413 -13 83 -12 117 -1 117 39 0 26 -1 26 -48 20
-43 -5 -50 -3 -80 23 -37 34 -39 53 -16 141 8 34 13 69 9 78 -3 9 2 31 11 48
16 29 16 39 4 103 -11 58 -11 73 0 86 18 22 6 29 -29 17 l-31 -11 3 46 c2 50
-17 70 -27 28 -4 -16 -26 -38 -61 -61 -52 -33 -58 -34 -96 -24 -22 6 -49 20
-59 30 -19 19 -20 19 -40 -9 -22 -32 -26 -61 -9 -78 6 -6 11 -65 12 -149 2
-117 -1 -144 -16 -172 -28 -52 -42 -36 -39 44 3 63 1 71 -22 93 -18 17 -27 38
-32 80 -7 63 -18 88 -48 112 -17 14 -18 19 -7 33 7 9 22 16 31 16 32 0 50 12
50 31 0 21 -25 34 -83 44 -32 5 -38 10 -35 27 2 16 14 24 48 32 57 14 70 46
18 46 -45 1 -78 21 -98 61 l-18 33 -20 -41 c-21 -39 -38 -53 -68 -53 -27 0
-55 85 -59 178 l-4 87 -36 9 c-60 16 -69 3 -75 -105 -7 -107 -13 -127 -44
-135 -28 -7 -221 13 -264 27 -40 13 -48 40 -36 123 12 85 7 115 -21 128 -36
16 -113 -15 -121 -48 -7 -26 18 -64 40 -64 6 0 23 -8 36 -17 l25 -18 -44 -5
c-40 -5 -45 -8 -56 -40 -11 -34 -12 -34 -66 -31 -30 1 -57 6 -60 9 -4 4 -9 54
-13 112 -4 79 -3 111 8 129 l13 24 22 -22 c20 -20 22 -29 16 -87 -6 -52 -4
-69 10 -90 26 -40 35 -15 35 102 l0 101 -64 61 c-35 34 -69 62 -76 62 -7 0
-10 13 -8 31 l3 32 245 -2 c135 0 329 -4 431 -7 l187 -7 18 -36 c13 -28 19
-71 24 -191 9 -241 26 -235 35 14 7 191 9 207 27 217 32 17 68 -13 68 -57 0
-19 7 -49 16 -65 13 -26 14 -41 4 -97 -15 -86 -11 -136 13 -140 12 -3 17 3 17
21 0 60 30 76 52 30 17 -36 43 -41 52 -11 l7 23 11 -23 c9 -18 18 -22 41 -20
29 3 31 0 45 -49 13 -46 18 -53 40 -53 22 0 24 3 18 31 -4 21 3 57 21 111 16
47 23 82 17 87 -18 16 -202 53 -248 50 l-47 -4 7 30 c3 16 10 38 15 47 24 46
145 24 229 -43 46 -36 54 -39 81 -30 22 8 32 7 43 -5 19 -19 9 -48 -39 -111
-19 -25 -35 -49 -35 -52 0 -4 27 -33 59 -65 l60 -59 12 46 c11 45 29 64 29 32
0 -9 11 -38 25 -65 14 -27 25 -61 25 -75 0 -20 4 -26 18 -23 13 2 18 15 20 54
2 36 9 57 22 69 19 17 20 17 20 -1 0 -26 37 -84 54 -84 7 0 19 14 26 31 l13
30 28 -27 28 -26 35 22 36 22 0 -34 c0 -70 53 -92 74 -31 16 48 23 49 47 9 25
-43 46 -46 59 -8 22 60 33 73 59 70 23 -3 26 -8 29 -43 5 -86 17 -101 53 -69
16 14 18 14 23 -4 8 -24 -5 -54 -49 -116 -24 -32 -35 -59 -35 -82 0 -29 -3
-34 -24 -34 -33 0 -56 35 -56 85 0 22 -5 57 -11 79 l-11 38 -24 -23 c-28 -26
-33 -92 -10 -125 10 -13 11 -23 4 -31 -12 -15 -48 -17 -48 -4 0 5 -9 13 -21
16 -15 5 -29 -1 -50 -21 -23 -22 -32 -25 -41 -16 -9 9 -9 15 0 24 19 19 14 44
-13 62 -14 9 -25 26 -25 37 0 28 -34 21 -38 -8 -4 -26 -27 -47 -42 -38 -5 3
-10 21 -10 40 0 39 -14 52 -36 34 -10 -9 -14 -30 -13 -77 2 -57 -1 -68 -21
-84 -28 -22 -40 -15 -40 23 0 37 -22 47 -55 25 -32 -21 -32 -48 0 -120 14 -31
25 -68 25 -81 0 -36 19 -31 27 8 4 17 6 36 5 41 -3 10 17 36 29 36 5 0 20 -18
34 -40 37 -59 75 -52 75 14 0 12 6 31 14 42 14 19 15 19 51 0 20 -11 52 -37
70 -58 19 -21 39 -38 45 -38 15 0 30 36 30 74 0 40 17 47 43 18 21 -23 21 -60
1 -149 -11 -51 -12 -76 -5 -96 12 -31 22 -33 57 -11 23 16 26 15 45 -2 17 -15
34 -18 87 -16 89 3 152 27 152 57 0 12 -7 29 -16 36 -33 27 -35 56 -9 125 30
80 31 113 6 145 -19 25 -19 25 10 64 36 48 36 53 2 57 -31 3 -31 1 -13 102 5
33 18 68 28 78 18 18 20 17 65 -28 77 -76 77 -140 0 -186 -29 -17 -31 -22 -21
-44 9 -19 7 -37 -6 -82 l-18 -58 31 -31 c45 -45 41 -78 -21 -185 l-51 -90
-103 7 c-114 8 -157 -1 -194 -40 -13 -14 -21 -27 -19 -30 12 -11 405 -24 804
-26 387 -2 433 -1 463 15 25 13 53 16 123 14 87 -3 91 -2 114 24 l23 27 23
-25 c30 -32 79 -40 134 -22 29 10 47 12 54 5 6 -6 55 -13 109 -16 54 -3 105
-11 113 -18 22 -18 1169 -40 1237 -23 29 6 55 16 58 21 13 22 -86 49 -208 59
-68 5 -134 10 -148 10 -19 0 -21 3 -12 12 18 18 14 91 -8 143 -11 26 -20 54
-20 64 0 23 57 78 69 65 4 -5 18 -38 30 -74 19 -58 20 -66 6 -76 -24 -18 -19
-71 10 -99 29 -29 35 -30 126 -9 39 9 90 14 115 12 l44 -3 0 106 c0 98 12 169
29 169 17 0 31 -27 31 -61 0 -21 7 -42 15 -49 13 -11 18 -10 31 9 8 11 40 37
71 57 62 39 74 37 94 -23 15 -47 6 -115 -20 -149 -31 -39 -27 -63 14 -80 43
-18 83 -17 115 1 33 19 40 18 40 -3 0 -10 -14 -34 -30 -52 -27 -30 -29 -36
-15 -49 14 -14 88 -23 212 -25 58 -1 86 15 137 77 22 27 29 48 30 79 1 54 -24
59 -37 8 -5 -19 -16 -43 -24 -53 -15 -16 -17 -16 -31 4 -11 16 -12 26 -3 45
20 44 12 97 -23 170 -32 67 -33 71 -15 82 26 17 129 -5 150 -31 15 -19 16 -18
32 22 10 23 17 57 17 76 0 31 -3 35 -26 35 -48 0 -103 22 -140 56 -44 41 -67
43 -82 8 -15 -31 -45 -26 -77 12 -23 27 -53 32 -61 10 -9 -23 11 -49 53 -71
32 -17 38 -25 36 -50 0 -17 -2 -48 -3 -70 -3 -43 6 -156 16 -217 6 -41 -9
-100 -30 -117 -10 -9 -21 -8 -41 1 -22 10 -24 14 -13 23 41 30 48 82 16 125
-28 38 -28 103 0 185 19 54 19 62 6 83 -23 35 -58 29 -79 -15 -15 -32 -16 -45
-6 -99 19 -102 10 -164 -22 -164 -28 0 -34 55 -27 226 5 93 6 172 3 177 -12
19 -41 5 -46 -23 -6 -27 -10 -30 -44 -30 -27 0 -57 -12 -103 -40 -64 -39 -101
-48 -129 -31 -12 8 -13 16 -2 52 15 48 1 89 -30 89 -19 0 -29 -27 -29 -82 0
-34 -19 -58 -44 -58 -3 0 -21 32 -39 71 -33 67 -33 72 -21 112 8 23 16 58 19
78 3 19 12 44 20 55 14 19 15 18 35 -6 11 -14 28 -46 37 -73 18 -47 38 -58 38
-20 0 25 32 63 53 63 12 0 13 -9 9 -44 -4 -29 -2 -49 8 -62 13 -18 16 -14 45
49 29 60 50 85 50 57 0 -6 12 -16 26 -22 29 -13 44 0 44 39 0 28 17 38 36 23
11 -10 13 -25 8 -61 -10 -71 15 -65 52 14 42 90 85 91 52 1 -9 -25 -9 -39 0
-59 12 -27 42 -35 42 -11 0 8 13 40 30 71 17 31 30 64 30 72 0 23 27 -2 34
-32 4 -14 10 -25 14 -25 4 0 32 25 62 55 l53 54 -18 41 c-13 28 -15 44 -8 51
26 26 80 -105 66 -160 -5 -18 -2 -22 12 -20 18 4 25 13 44 62 9 22 17 27 45
27 19 0 38 5 41 11 5 7 14 4 27 -7 16 -16 21 -16 28 -4 6 8 10 18 10 23 0 4
22 7 49 7 l48 0 8 150 c7 146 8 150 30 156 53 13 58 5 56 -79 -1 -42 5 -114
14 -159 22 -107 17 -184 -17 -235 -24 -36 -30 -39 -99 -51 -41 -8 -101 -24
-134 -36 -59 -22 -60 -24 -63 -64 -2 -23 0 -42 4 -42 3 0 24 15 44 34 32 29
48 35 104 41 79 9 99 3 94 -27 -3 -20 -10 -23 -60 -26 -53 -3 -58 -5 -58 -26
0 -17 9 -27 30 -36 42 -18 52 -33 36 -55 -12 -17 -17 -18 -40 -7 -44 20 -66
15 -66 -12 0 -18 10 -29 38 -43 20 -10 38 -26 40 -35 2 -9 -15 -48 -38 -85
-37 -60 -40 -73 -35 -110 7 -51 0 -69 -21 -52 -8 6 -14 27 -14 45 0 38 -8 42
-40 16 -23 -18 -39 -77 -40 -144 l0 -38 208 0 c114 0 453 -3 753 -7 l546 -6
16 24 c14 21 15 46 10 162 -6 132 -7 137 -28 137 -19 0 -25 -11 -43 -78 -12
-42 -19 -87 -16 -99 8 -28 -3 -73 -17 -73 -5 0 -20 21 -32 48 -20 43 -22 63
-22 240 -1 169 1 195 16 208 14 12 22 13 38 5 33 -18 41 -45 39 -130 -3 -90 7
-111 43 -95 21 10 22 17 26 183 3 156 1 177 -17 218 -22 50 -23 50 -127 28
-55 -12 -63 14 -66 216 -2 193 3 218 62 276 l31 32 -46 38 -45 38 3 195 c3
161 7 202 22 238 14 32 16 46 7 55 -17 17 -14 32 14 65 34 41 32 65 -9 84 -52
25 -173 177 -250 312 -29 50 -111 181 -182 291 -72 110 -147 228 -167 262 -19
34 -45 71 -56 82 -16 16 -21 34 -21 70 0 27 -3 56 -6 65 -12 31 -34 16 -45
-29 -9 -35 -19 -50 -43 -62 -17 -9 -45 -27 -62 -39 -33 -25 -59 -31 -69 -14
-12 19 -23 10 -36 -27 -18 -55 -102 -224 -137 -275 -16 -23 -53 -90 -82 -148
-70 -139 -116 -206 -189 -272 -54 -49 -60 -58 -67 -106 -7 -52 -27 -83 -43
-66 -23 25 -284 420 -325 492 -26 45 -50 82 -52 82 -3 0 -35 -25 -72 -55 -37
-31 -77 -58 -88 -61 -17 -4 -42 -49 -109 -195 -49 -104 -108 -223 -132 -264
-41 -71 -46 -75 -78 -75 -41 0 -44 -13 -20 -79 13 -39 13 -43 -4 -60 -31 -31
-170 -35 -557 -16 -192 9 -392 15 -446 13 l-96 -3 -32 40 c-17 22 -34 42 -36
44 -3 3 -18 -12 -35 -32 -17 -20 -39 -37 -49 -37 -36 0 -91 42 -107 81 -15 39
-53 63 -61 39 -8 -24 -63 -78 -91 -90 -43 -18 -73 -9 -96 27 -29 46 -57 41
-68 -13 l-8 -42 -142 -7 c-80 -4 -236 -2 -357 5 -118 6 -302 13 -409 15 -126
3 -198 8 -207 16 -9 8 -14 33 -14 75 0 65 -7 76 -30 49 -20 -24 -29 -18 -36
25 -4 23 -12 40 -20 40 -30 0 -81 94 -109 202 -9 34 -36 108 -62 163 -25 55
-48 117 -51 137 -5 40 -11 44 -44 27 -17 -9 -25 -6 -50 18 -17 15 -39 47 -50
71 -22 50 -39 50 -53 0 -5 -19 -22 -50 -36 -69 -14 -19 -77 -113 -140 -209
-112 -170 -210 -292 -224 -278 -9 9 -24 77 -25 113 0 21 -11 40 -36 65 -78 75
-137 165 -259 390 -37 69 -87 156 -111 193 -37 56 -44 76 -44 116 0 59 -16 77
-48 55 -47 -33 -110 8 -152 99 -12 26 -26 47 -30 47 -4 0 -11 -17 -15 -37z
m39 -215 c7 -13 37 -91 65 -175 69 -207 131 -362 207 -522 35 -74 62 -137 58
-140 -8 -8 -963 -5 -971 3 -9 8 36 55 69 72 34 18 56 18 92 -1 37 -19 45 -19
100 4 l45 20 -25 62 c-13 35 -30 66 -37 71 -6 4 -33 8 -59 8 -51 0 -56 5 -34
36 14 19 15 19 36 -3 46 -50 95 -14 71 51 -19 48 -12 65 52 139 34 40 74 87
90 105 l27 34 35 -31 c50 -43 83 -50 107 -21 51 63 23 157 -44 148 -32 -5 -35
6 -10 43 31 46 94 119 103 119 5 0 15 -10 23 -22z m105 -2 c74 -39 144 -165
143 -256 -2 -69 14 -97 69 -124 35 -17 50 -33 80 -90 l37 -69 -33 -31 c-25
-24 -35 -44 -40 -79 -6 -42 -4 -51 19 -82 21 -27 23 -35 12 -35 -24 0 -56 37
-56 64 0 32 -17 78 -34 91 -16 12 -91 178 -100 221 -4 17 -2 44 5 60 6 16 13
52 16 80 5 61 -12 84 -61 84 -42 0 -62 23 -76 85 -5 28 -12 60 -15 73 -6 26
-3 27 34 8z m6116 -361 c74 -114 135 -219 135 -232 0 -5 -16 -19 -35 -32 l-35
-24 21 -33 21 -34 -29 0 c-40 0 -89 -33 -97 -66 -6 -22 -2 -33 24 -58 l31 -31
133 2 133 2 34 -30 34 -29 -410 4 c-353 3 -546 14 -563 31 -2 1 17 34 41 71
60 93 119 212 215 436 45 103 95 214 112 248 l31 62 66 -88 c36 -49 98 -138
138 -199z m-275 260 c0 -10 -42 -89 -62 -118 -15 -20 -25 -26 -42 -21 -34 8
-90 -58 -81 -95 3 -14 9 -53 12 -86 6 -75 -12 -127 -99 -273 l-63 -107 -5 71
c-4 51 -10 78 -23 92 -17 18 -17 25 -7 59 22 68 57 113 89 113 40 0 84 65 72
106 -19 68 63 209 143 245 41 19 66 24 66 14z m-4740 -475 c50 -100 88 -185
85 -190 -3 -5 -3 -25 0 -43 5 -24 14 -36 33 -43 19 -7 33 -26 48 -62 l22 -51
-65 -7 c-36 -3 -177 -5 -313 -2 -231 4 -248 3 -259 -14 -16 -26 -42 -22 -87
12 -21 16 -46 30 -54 30 -16 0 -142 91 -136 98 5 5 72 -31 126 -67 57 -39 101
-41 128 -6 15 18 29 25 56 25 111 0 192 109 117 157 l-29 18 30 60 c28 58 73
115 90 115 4 0 17 -9 28 -20 26 -26 56 -26 70 0 11 20 5 60 -8 60 -4 0 -15 7
-26 15 -18 13 -18 15 3 49 18 29 29 39 48 45 2 1 44 -80 93 -179z m3764 -5
c24 -33 61 -93 82 -133 l38 -73 -57 -51 c-31 -27 -57 -57 -57 -67 0 -10 11
-28 25 -41 23 -21 29 -23 58 -13 17 7 44 9 60 6 24 -5 29 -1 38 26 6 18 16 30
22 28 6 -2 24 -29 41 -61 28 -54 32 -57 60 -53 17 2 39 8 50 12 36 16 11 -19
-30 -42 -50 -28 -136 -33 -161 -11 -15 13 -65 17 -268 22 -137 3 -269 9 -292
12 l-43 7 0 50 c0 43 2 48 15 37 10 -9 35 -11 75 -7 45 4 62 1 71 -10 27 -32
47 -34 98 -12 70 29 88 51 72 86 -9 19 -9 29 -2 31 18 6 -6 40 -39 57 -36 19
-67 7 -76 -30 -3 -13 -13 -30 -22 -37 -9 -7 -14 -8 -11 -3 3 6 43 92 89 193
l84 183 18 -23 c11 -13 38 -50 62 -83z m-5069 -399 c121 -3 234 -8 250 -13 50
-15 69 -67 75 -213 l5 -125 30 -5 c23 -4 31 -11 33 -32 3 -29 29 -45 46 -28 7
7 10 42 8 86 -2 55 2 81 13 97 8 12 15 43 15 69 0 35 4 48 14 48 19 0 26 -23
30 -106 5 -82 13 -106 34 -102 15 3 22 13 41 61 6 15 15 25 21 22 5 -3 6 -15
1 -28 -13 -34 -1 -195 16 -208 7 -7 15 -10 18 -8 2 3 11 48 19 102 15 90 46
180 67 193 15 9 10 -8 -7 -27 -29 -32 -32 -235 -5 -278 8 -12 12 -12 25 -2 11
10 16 31 16 74 0 50 5 68 30 106 16 26 43 59 59 75 l30 29 7 -41 c13 -82 62
-91 133 -24 47 45 61 85 37 111 -30 33 -20 41 53 41 l68 0 -8 -42 c-9 -52 4
-108 31 -133 11 -10 20 -24 20 -32 0 -17 47 -35 71 -28 10 4 28 20 40 37 20
27 21 35 11 79 -6 27 -9 55 -6 62 3 8 30 21 60 31 63 20 84 12 76 -29 -6 -32
19 -43 56 -24 15 7 30 15 35 17 15 7 6 -69 -13 -118 -23 -58 -25 -91 -8 -108
9 -9 -65 -12 -334 -12 -321 0 -347 -1 -369 -18 -29 -24 -20 -49 22 -60 l33 -8
-37 -28 c-29 -23 -35 -31 -26 -42 14 -17 46 -18 105 -3 34 9 46 17 50 36 11
41 52 54 149 47 l86 -7 -22 -23 c-21 -23 -21 -24 -4 -66 21 -54 33 -68 55 -68
21 0 70 54 70 78 0 12 3 13 12 4 7 -7 25 -12 41 -12 23 0 31 7 43 35 16 40 33
44 59 15 9 -10 46 -38 80 -60 62 -40 89 -77 85 -116 -4 -35 0 -42 30 -54 17
-7 32 -11 34 -9 2 2 11 40 21 84 14 66 35 126 50 143 5 6 66 -51 77 -71 6 -12
6 -23 -2 -32 -8 -10 -5 -22 14 -51 38 -58 45 -64 71 -64 30 0 39 26 36 107 -2
53 1 63 18 73 14 7 21 21 21 40 0 41 26 39 48 -2 9 -18 29 -44 43 -59 18 -19
28 -43 31 -74 6 -53 30 -85 58 -78 32 9 43 31 46 95 2 43 7 66 18 74 19 13 21
35 4 52 -9 9 -4 12 23 12 40 0 59 -15 59 -44 0 -32 82 -196 97 -196 8 0 23 5
35 11 16 8 19 17 14 39 -3 20 3 47 20 84 17 37 23 63 18 80 -4 19 -2 26 9 26
32 0 42 -31 42 -126 0 -86 -2 -94 -22 -103 -12 -5 -38 -35 -57 -65 -34 -53
-38 -56 -76 -56 -37 0 -43 4 -68 45 -14 24 -33 47 -40 50 -24 9 -51 -14 -58
-50 l-6 -35 -92 1 c-50 0 -85 3 -78 6 29 12 -3 73 -38 73 -26 0 -33 -29 -14
-58 16 -24 16 -25 -7 -19 -13 4 -57 7 -96 7 l-73 0 -14 34 c-25 59 -77 57 -89
-3 -5 -25 -12 -30 -47 -36 -53 -9 -104 -1 -232 36 -57 16 -133 34 -170 39 -97
14 -244 64 -313 106 -50 30 -69 36 -110 35 -36 -1 -85 11 -178 43 -71 24 -134
49 -140 54 -22 17 -76 42 -92 42 -10 0 -15 -10 -15 -31 l0 -32 -77 7 c-42 3
-144 6 -227 6 l-151 1 24 19 c19 17 38 20 112 20 l89 0 0 161 0 162 -52 -7
c-62 -9 -88 -28 -88 -68 0 -17 -4 -27 -10 -23 -5 3 -10 25 -10 49 0 23 -7 51
-15 62 -8 10 -15 29 -15 40 0 30 -28 53 -41 33 -13 -20 -11 -46 5 -61 9 -10
16 -54 21 -134 8 -135 -2 -179 -50 -210 l-27 -17 24 -13 c19 -11 -9 -13 -183
-14 -206 0 -207 0 -213 23 -4 12 -11 115 -15 229 -6 154 -11 211 -22 224 -8
10 -38 28 -66 40 -29 13 -53 27 -53 32 0 25 29 29 193 26 95 -2 271 -6 392 -8z
m6375 -90 c118 -2 244 -9 279 -16 l64 -13 -31 -13 c-41 -17 -51 -54 -26 -90
61 -86 65 -104 39 -190 -8 -27 -15 -75 -15 -106 0 -52 4 -62 35 -97 42 -47 45
-63 8 -59 -20 2 -38 17 -63 51 -35 47 -64 59 -87 36 -19 -19 -23 18 -21 171 2
134 1 148 -20 188 -44 83 -120 102 -173 43 l-26 -28 14 -74 c22 -117 22 -248
0 -284 -43 -71 -148 -107 -197 -67 -22 18 -25 29 -31 133 -8 131 -12 149 -40
142 -17 -5 -18 -1 -13 28 8 40 18 54 41 54 10 0 24 13 33 28 14 26 14 29 -4
43 -11 8 -36 14 -57 14 -20 0 -42 7 -49 15 -7 8 -20 15 -29 15 -9 0 -22 9 -29
20 -14 24 -45 26 -62 5 -7 -8 -16 -15 -21 -15 -9 0 -13 63 -5 71 3 3 65 3 138
2 73 -2 230 -5 348 -7z m-6884 -102 c14 -21 16 -39 9 -112 -5 -48 -9 -105 -9
-127 -1 -22 -5 -47 -11 -55 -5 -8 -16 -28 -25 -45 -8 -16 -23 -31 -32 -33 -15
-3 -18 5 -18 52 0 31 4 56 10 56 19 0 40 60 40 114 0 49 -3 57 -31 79 l-31 24
21 47 c18 42 22 46 41 36 11 -6 27 -22 36 -36z m5249 -5 c26 -11 56 -19 66
-16 12 3 19 0 19 -9 0 -8 9 -41 21 -74 12 -36 18 -71 15 -86 -6 -21 -3 -24 23
-24 43 0 111 91 111 148 0 58 24 81 77 75 l42 -5 -24 -32 c-32 -42 -35 -106
-6 -106 11 0 40 -16 65 -35 26 -19 57 -35 71 -35 34 0 55 34 48 77 l-6 35 42
-22 c50 -25 80 -81 81 -147 0 -42 19 -73 46 -73 20 0 27 41 19 114 -4 42 -3
66 4 71 8 4 11 -20 11 -75 0 -91 18 -139 52 -140 14 0 30 114 23 165 -8 66 9
82 31 29 14 -32 14 -47 4 -95 -13 -61 -9 -79 19 -79 35 0 41 21 41 137 0 87 4
122 17 146 l16 32 24 -110 c13 -60 22 -125 19 -142 -4 -26 -1 -33 12 -33 25 0
37 11 56 48 9 18 25 38 36 45 13 8 20 24 21 47 1 19 5 49 8 65 7 28 8 25 21
-30 10 -49 10 -76 0 -145 -19 -132 -19 -144 8 -148 13 -2 30 2 38 9 11 9 18 8
34 -6 11 -10 26 -15 35 -12 8 4 25 3 37 -2 35 -13 -188 -23 -256 -11 -32 5
-74 18 -93 30 l-34 20 -45 -26 c-61 -36 -117 -51 -255 -69 -152 -20 -234 -45
-295 -92 -48 -38 -50 -38 -130 -35 -68 2 -84 0 -106 -18 -14 -11 -40 -20 -57
-20 -18 0 -59 -14 -92 -30 l-60 -31 16 25 c21 32 5 66 -30 66 -20 0 -25 -5
-25 -24 0 -67 -149 -77 -166 -12 -8 34 -29 49 -54 41 -14 -4 -19 -12 -15 -24
6 -20 -13 -49 -35 -51 -8 -2 -43 -2 -77 -1 -60 1 -63 2 -63 25 0 42 -11 56
-41 56 -23 0 -35 -9 -57 -40 -25 -36 -31 -39 -73 -40 -50 0 -74 13 -92 50 -15
31 -45 38 -54 13 -15 -44 -34 -53 -105 -53 -46 0 -67 4 -63 11 4 5 4 21 1 33
-4 17 -23 31 -71 51 -65 28 -86 55 -41 55 38 0 48 21 41 87 -6 51 -5 60 14 77
12 11 24 16 27 13 4 -3 15 -52 25 -108 22 -125 24 -129 49 -129 29 0 76 70
102 154 33 104 57 110 83 21 8 -30 20 -57 25 -60 6 -3 10 -24 10 -45 0 -51 8
-70 31 -70 26 0 53 32 93 114 20 39 45 82 56 96 l19 25 21 -21 c18 -17 23 -39
29 -113 10 -113 21 -130 73 -108 61 26 97 94 66 125 -9 9 -3 21 27 52 l39 40
23 -63 c18 -47 23 -76 19 -119 -2 -32 0 -61 5 -64 15 -9 78 16 89 36 6 10 10
36 10 57 0 50 7 58 65 84 28 12 63 33 78 47 36 34 56 23 77 -41 15 -46 34 -59
56 -37 7 7 14 -2 23 -25 19 -55 49 -48 110 26 52 62 60 86 39 107 -9 9 5 12
64 12 74 0 108 -13 108 -40 0 -13 109 -60 140 -60 42 0 56 24 35 56 -12 19
-14 29 -6 37 18 18 12 47 -15 72 l-27 25 -256 1 c-283 1 -439 10 -404 22 29
11 36 35 18 63 l-15 23 -36 -21 c-46 -27 -151 -29 -190 -3 -24 15 -27 15 -60
-4 -33 -20 -37 -20 -119 -5 -76 15 -88 15 -108 1 -15 -10 -29 -12 -38 -6 -8 5
-39 9 -70 9 -44 0 -60 -4 -75 -21 -38 -43 -114 -66 -114 -35 0 27 -50 56 -96
56 -41 0 -45 -2 -60 -37 -10 -22 -18 -32 -21 -25 -3 8 0 19 6 25 33 33 -5 80
-47 58 -15 -8 -23 -6 -36 8 -19 20 -20 51 -5 104 l10 37 412 -1 c227 0 434 -4
460 -7 46 -7 51 -10 81 -61 56 -96 93 -94 89 5 l-2 56 27 -7 c50 -13 57 -11
55 15 -2 26 3 50 10 50 3 0 26 -9 52 -21z m-2177 -5 c44 -6 52 -10 52 -28 0
-12 11 -38 25 -58 14 -20 25 -39 25 -41 0 -11 -100 -46 -114 -41 -25 10 -20
-35 7 -57 l22 -18 -28 -1 c-22 0 -31 7 -44 35 -24 50 -71 55 -92 9 -13 -29
-48 -44 -102 -44 -48 0 -51 15 -4 30 38 13 55 45 34 65 -12 11 -24 10 -74 -5
-163 -49 -165 -50 -165 -32 0 15 -25 17 -242 20 -133 1 -243 4 -245 6 -10 10
32 110 58 135 l31 31 401 0 c221 0 426 -3 455 -6z m527 -464 c15 0 44 14 66
32 21 17 42 28 46 24 4 -3 1 -30 -7 -58 -12 -47 -11 -52 6 -65 10 -7 23 -13
29 -13 7 0 16 -14 21 -31 13 -44 36 -57 68 -39 33 17 33 49 1 80 -28 26 -32
40 -12 40 7 0 30 9 52 20 22 11 40 20 41 20 1 0 12 -16 24 -35 25 -40 19 -61
-12 -44 -18 9 -24 8 -35 -7 -19 -26 -16 -37 17 -69 23 -22 41 -29 85 -33 30
-2 59 -10 65 -17 9 -11 0 -15 -45 -20 -64 -8 -811 1 -868 11 -54 9 -40 28 23
32 67 4 84 16 77 58 -4 23 0 35 15 48 15 13 19 27 16 56 l-3 38 55 -30 c30
-16 63 -27 75 -26 11 2 25 -3 31 -12 10 -12 17 -12 38 -2 36 16 42 37 22 78
-31 66 -18 72 34 17 35 -37 57 -53 75 -53z m3516 -101 c11 -21 21 -22 87 -3
40 11 25 -20 -34 -71 -82 -71 -114 -125 -114 -196 0 -36 5 -61 14 -68 19 -16
31 2 50 78 19 75 30 91 62 91 31 0 30 -14 -2 -39 -27 -21 -25 -41 4 -42 12 0
11 -3 -5 -9 -26 -10 -31 -45 -8 -53 12 -5 12 -10 0 -34 -8 -15 -15 -36 -15
-45 0 -22 -35 -58 -55 -58 -8 0 -24 9 -35 20 -16 16 -20 33 -20 94 0 57 -4 79
-19 98 -13 16 -17 29 -10 39 12 19 11 71 -3 127 -13 52 -22 62 -58 61 -35 0
-62 -17 -109 -70 l-40 -46 19 -94 c44 -212 20 -255 -139 -248 -91 5 -108 15
-118 72 -8 51 3 85 29 89 13 2 24 13 29 29 3 14 23 49 43 78 20 29 36 58 36
64 0 20 -33 47 -58 47 -42 0 -62 -27 -62 -82 l0 -48 -62 0 -63 0 40 27 c22 14
42 28 44 29 2 2 -2 11 -10 20 -8 10 -14 40 -14 73 l0 56 -72 -3 c-40 -1 -73 0
-73 2 0 2 3 11 6 20 5 14 47 16 365 16 354 0 358 0 370 -21z m-4275 -281 c-23
-32 -19 -64 14 -143 37 -85 37 -109 4 -132 -14 -10 -43 -33 -65 -50 -47 -38
-76 -44 -59 -14 5 11 10 62 10 114 0 85 3 98 26 132 25 38 25 38 7 64 -38 51
-38 51 22 51 56 0 56 0 41 -22z m1542 -4 l23 -7 -22 -23 -21 -23 27 -56 c25
-51 27 -63 22 -138 -8 -120 -10 -123 -62 -84 -47 34 -60 54 -70 103 -5 25 1
41 30 84 54 81 55 99 5 133 l-24 17 34 0 c19 0 45 -3 58 -6z m-1795 -102 c42
-47 64 -163 32 -176 -17 -6 -20 -51 -5 -61 19 -12 10 -32 -22 -46 -47 -20 -49
-53 -7 -89 31 -25 33 -32 37 -96 3 -55 1 -73 -12 -83 -19 -16 -21 -74 -3 -89
6 -5 35 -13 62 -17 44 -6 47 -8 26 -16 -28 -11 -138 8 -148 25 -4 6 -7 32 -8
58 -1 38 -7 52 -28 72 -40 37 -40 66 4 133 37 59 36 74 -2 118 -32 36 -32 36
-25 115 7 86 18 125 43 152 20 23 36 23 56 0z m2051 -43 c31 -36 33 -76 10
-156 -9 -30 -14 -66 -11 -79 3 -15 -3 -30 -19 -44 -18 -18 -21 -27 -13 -52 5
-17 18 -42 30 -54 l22 -23 -23 -53 c-40 -94 -79 -115 -104 -56 -15 34 -11 55
23 128 27 58 27 98 -1 127 -12 13 -17 23 -11 23 25 0 22 35 -8 81 l-31 49 17
43 c18 45 61 97 81 97 7 0 24 -14 38 -31z m257 -23 c10 -22 19 -56 19 -73 0
-27 -4 -33 -21 -33 -12 0 -37 -10 -56 -21 -32 -20 -35 -20 -53 -4 -26 24 -33
61 -16 94 19 36 84 93 98 85 5 -4 19 -25 29 -48z m-4932 -162 c12 -11 12 -20
3 -52 -16 -53 -15 -85 4 -126 16 -33 16 -35 -16 -90 -23 -40 -31 -65 -27 -84
13 -63 12 -67 -9 -70 -41 -6 -46 17 -42 188 2 114 0 160 -8 160 -6 0 -17 7
-24 15 -10 12 -9 20 4 40 29 44 80 53 115 19z m1375 -60 c12 -31 5 -53 -45
-150 -46 -89 -50 -104 -47 -151 4 -39 1 -50 -9 -46 -13 5 -33 63 -33 95 0 9
-11 29 -23 44 -23 27 -24 28 -8 78 22 70 27 76 67 76 29 0 38 6 55 35 23 38
34 43 43 19z m5914 -37 c28 -26 28 -35 -4 -59 -25 -20 -25 -22 -19 -117 7 -95
-5 -205 -24 -224 -5 -5 -21 -7 -35 -3 -24 6 -25 7 -10 41 19 45 18 82 -2 93
-24 13 -17 246 9 285 15 24 21 26 40 16 12 -6 32 -21 45 -32z m-5174 -87 l36
-40 -20 -40 c-18 -35 -66 -80 -73 -69 -2 2 -11 36 -21 75 -29 116 8 151 78 74z
m2320 -3 c7 -11 5 -33 -8 -74 -37 -117 -32 -114 -72 -54 -32 48 -34 55 -24 86
6 19 20 45 32 60 18 23 22 25 41 12 12 -7 25 -21 31 -30z"/>
<path d="M3023 6526 c-17 -8 -34 -24 -38 -36 -9 -29 8 -46 25 -25 17 21 32 19
66 -7 l28 -22 -25 -7 c-13 -4 -37 -7 -54 -8 -49 -2 -101 -20 -128 -45 -21 -19
-24 -29 -18 -56 9 -47 30 -57 88 -42 48 13 83 9 83 -9 0 -12 67 -11 91 1 17
10 19 21 16 119 -2 95 -4 110 -22 123 -31 24 -76 29 -112 14z"/>
<path d="M8861 6414 c-32 -27 -39 -52 -20 -71 9 -9 1 -15 -29 -24 -46 -13 -82
-42 -82 -65 0 -8 7 -28 15 -44 13 -24 22 -30 50 -30 18 0 45 4 59 10 17 6 34
6 49 -1 14 -6 41 -7 72 -2 50 8 50 8 53 50 4 55 -10 80 -50 88 -76 15 -76 15
-33 50 33 29 37 35 26 49 -21 25 -75 20 -110 -10z"/>
<path d="M4133 6250 c-34 -39 -42 -77 -21 -98 14 -14 96 -16 117 -3 10 7 11
13 2 30 -9 16 -8 27 4 52 23 43 14 59 -32 58 -31 -1 -44 -8 -70 -39z"/>
<path d="M2582 5869 c-31 -20 -34 -20 -51 -5 -17 16 -19 16 -26 -1 -5 -10 -10
-91 -13 -180 l-4 -163 71 0 71 0 1 103 c0 56 4 136 8 177 5 51 4 77 -3 82 -15
11 -17 10 -54 -13z"/>
<path d="M1574 7191 c-54 -23 -87 -107 -64 -161 45 -108 195 -108 240 0 17 40
5 94 -29 132 -22 25 -36 31 -77 34 -27 2 -59 0 -70 -5z"/>
<path d="M10363 7009 c-105 -29 -116 -194 -16 -235 42 -18 77 -18 114 1 64 34
87 120 49 182 -29 49 -86 69 -147 52z"/>
<path d="M1523 6869 c-105 -30 -117 -193 -16 -235 42 -18 77 -18 114 1 64 34
87 120 49 182 -29 49 -86 69 -147 52z"/>
<path d="M11087 6826 c-111 -40 -195 -117 -244 -222 -23 -49 -28 -77 -31 -160
-5 -120 13 -203 61 -283 85 -142 269 -221 445 -191 280 47 418 291 336 590
-30 108 -113 204 -223 257 -48 23 -71 28 -166 30 -97 3 -118 1 -178 -21z m373
-216 c100 -27 164 -102 163 -191 -2 -146 -151 -222 -438 -223 -126 -1 -145 1
-190 22 -78 36 -110 72 -126 142 -17 74 30 158 111 200 117 60 351 84 480 50z"/>
<path d="M473 6719 c-97 -48 -126 -129 -147 -412 -9 -113 -16 -218 -16 -232 0
-40 27 -30 34 13 3 21 15 47 26 57 20 18 28 18 293 1 348 -23 416 -31 434 -49
8 -8 16 -33 16 -56 2 -32 6 -41 20 -41 14 0 17 9 18 48 0 26 6 122 12 215 12
158 12 167 -5 167 -12 0 -18 -8 -18 -25 0 -35 -20 -74 -43 -81 -19 -6 -162 1
-257 12 l-45 5 -1 107 c0 115 -19 179 -67 230 -59 63 -172 82 -254 41z m198
-215 c41 -24 69 -75 69 -127 0 -37 -1 -38 -27 -33 -16 3 -82 8 -148 11 -159 8
-175 11 -175 38 1 42 36 103 71 121 46 23 163 17 210 -10z"/>
<path d="M10410 6677 c-43 -15 -80 -68 -80 -116 0 -68 60 -131 125 -131 137 0
175 194 49 246 -39 17 -48 17 -94 1z"/>
<path d="M1449 6525 c-31 -17 -59 -71 -59 -113 0 -35 36 -92 70 -109 66 -34
155 2 178 71 28 85 -29 166 -116 166 -26 -1 -59 -7 -73 -15z"/>
<path d="M10402 6322 c-80 -75 -38 -207 70 -219 85 -10 138 41 138 133 0 39
-5 51 -34 80 -30 30 -40 34 -89 34 -47 0 -60 -4 -85 -28z"/>
<path d="M1440 6198 c-34 -18 -70 -75 -70 -110 0 -72 58 -128 131 -128 116 0
169 140 84 220 -30 28 -108 37 -145 18z"/>
<path d="M10419 5997 c-101 -68 -53 -227 68 -227 78 0 133 53 133 128 0 35
-36 92 -70 109 -39 20 -93 16 -131 -10z"/>
<path d="M1454 5870 c-11 -4 -33 -23 -48 -41 -25 -29 -28 -39 -24 -86 3 -38
11 -60 28 -78 49 -52 141 -52 190 0 31 33 39 114 16 150 -35 53 -106 78 -162
55z"/>
<path d="M10415 5676 c-43 -19 -69 -62 -69 -116 0 -55 23 -93 71 -115 87 -41
183 23 183 122 0 41 -35 92 -75 109 -42 17 -71 17 -110 0z"/>
<path d="M1485 5536 c-49 -22 -68 -51 -73 -111 -4 -52 -3 -56 30 -89 61 -61
134 -61 187 0 59 66 36 166 -45 200 -41 17 -60 17 -99 0z"/>
<path d="M10373 5345 c-101 -44 -93 -197 13 -234 52 -18 88 -9 131 34 28 28
33 40 33 83 0 55 -22 92 -70 117 -36 18 -65 18 -107 0z"/>
<path d="M2988 5344 c-13 -12 -9 -22 10 -28 9 -3 27 -23 39 -44 20 -35 20 -40
6 -54 -12 -12 -13 -20 -4 -37 17 -31 59 -27 104 10 40 33 45 50 22 69 -8 7
-15 23 -15 35 0 28 -20 45 -51 44 -13 -1 -42 2 -64 6 -22 4 -43 3 -47 -1z"/>
<path d="M1550 5213 c-92 -37 -117 -144 -49 -212 75 -75 198 -34 216 72 6 42
-18 100 -51 122 -27 18 -92 28 -116 18z"/>
<path d="M790 5073 c-28 -14 -36 -25 -41 -56 -4 -24 -19 -51 -41 -75 -45 -46
-58 -72 -58 -112 0 -49 16 -67 80 -91 36 -13 71 -34 90 -56 28 -31 36 -34 78
-31 l47 3 37 70 c20 39 50 82 67 96 24 20 31 33 31 63 0 54 -24 93 -61 101
-18 4 -54 27 -80 52 -56 52 -98 62 -149 36z"/>
<path d="M10305 5020 c-61 -25 -91 -108 -61 -172 21 -44 63 -68 119 -68 120 0
168 160 68 227 -35 24 -88 29 -126 13z"/>
<path d="M11085 4900 c-27 -17 -66 -34 -86 -40 -51 -14 -89 -47 -89 -76 0 -14
18 -55 41 -92 27 -46 39 -75 35 -92 -2 -13 2 -37 10 -51 26 -50 67 -51 165 -4
41 19 82 35 92 35 26 0 65 47 73 87 5 27 2 39 -16 58 -12 13 -33 54 -47 92
-43 119 -84 139 -178 83z"/>
<path d="M1584 4857 c-114 -104 22 -277 154 -197 70 43 78 136 17 197 -29 29
-40 33 -84 33 -44 0 -56 -5 -87 -33z"/>
<path d="M10199 4693 c-76 -47 -79 -168 -5 -217 14 -9 45 -16 71 -16 52 0 90
20 111 61 17 34 18 96 0 127 -31 57 -121 80 -177 45z"/>
<path d="M1721 4562 c-70 -35 -94 -109 -58 -179 17 -31 69 -63 106 -63 40 0
90 28 111 62 40 66 13 155 -55 184 -45 18 -63 18 -104 -4z"/>
<path d="M4012 4375 c-12 -25 -25 -45 -29 -45 -5 0 -21 9 -38 20 -35 23 -78
26 -94 6 -7 -8 -11 -36 -9 -63 3 -40 6 -48 25 -51 13 -2 31 7 47 25 l26 28 25
-28 c14 -15 34 -27 43 -27 28 1 102 38 102 52 0 7 -14 33 -30 57 -17 24 -30
50 -30 58 0 26 -16 12 -38 -32z"/>
<path d="M10079 4377 c-47 -31 -67 -90 -51 -146 17 -54 61 -85 122 -85 57 0
93 25 115 78 48 117 -82 223 -186 153z"/>
<path d="M4105 4209 c-100 -31 -77 -69 53 -85 l87 -11 33 33 c17 17 32 39 32
47 0 25 -141 36 -205 16z"/>
<path d="M7656 4177 c-24 -17 -18 -45 15 -70 39 -28 197 -37 222 -13 9 10 17
25 17 35 0 19 -45 31 -164 46 -27 4 -54 9 -60 11 -6 2 -20 -2 -30 -9z"/>
<path d="M1979 3947 c-124 -83 -38 -266 107 -226 50 14 84 61 84 115 0 59 -21
97 -64 118 -47 22 -87 20 -127 -7z"/>
<path d="M8365 3910 c-49 -17 -106 -35 -126 -40 -46 -13 -127 -84 -145 -127
-8 -18 -14 -45 -14 -61 0 -16 -7 -36 -16 -43 -16 -13 -16 -26 2 -170 6 -50 -4
-65 -76 -111 -50 -32 -77 -95 -90 -208 -12 -109 -41 -178 -83 -198 -43 -21
-78 -87 -94 -175 -10 -57 -32 -119 -78 -218 -65 -141 -110 -267 -99 -278 3 -3
65 56 137 132 117 122 157 155 157 129 0 -4 -47 -68 -105 -141 -154 -195 -157
-207 -43 -145 179 95 184 97 253 96 l65 -1 279 149 c153 83 290 150 304 150
28 0 77 35 77 56 0 28 -25 20 -265 -84 -215 -93 -252 -105 -283 -89 -16 7 -30
25 -35 44 -13 42 5 69 81 125 31 23 63 50 70 60 19 26 30 22 49 -17 9 -19 22
-35 27 -35 6 0 133 122 281 270 148 149 265 270 258 270 -6 0 -102 -61 -214
-135 -111 -75 -207 -134 -213 -132 -6 2 -15 21 -20 43 -5 21 -10 41 -12 43 -9
10 -146 -116 -288 -264 -87 -91 -162 -165 -167 -165 -15 0 -10 38 10 79 11 21
56 78 101 127 83 90 120 147 120 183 0 21 101 174 149 224 30 33 72 57 99 57
10 0 36 16 58 36 21 20 68 50 104 67 55 26 80 32 157 35 111 5 172 -5 373 -62
212 -59 220 -61 220 -42 0 8 -32 34 -70 57 -78 46 -108 78 -87 91 6 4 57 22
112 39 92 29 165 68 165 89 0 17 -36 16 -90 -2 -67 -23 -146 -26 -189 -8 -38
15 -30 30 33 62 23 11 56 32 74 45 29 22 32 27 20 40 -12 11 -24 12 -68 2
-109 -23 -205 -3 -429 91 -135 57 -249 90 -306 90 -22 -1 -80 -14 -130 -30z
m301 -85 c84 -28 338 -154 312 -154 -9 -1 -63 23 -119 52 l-103 52 -115 0
c-139 0 -168 -9 -247 -76 -32 -27 -70 -53 -83 -56 -30 -7 -50 17 -43 52 6 35
83 112 135 135 62 29 169 27 263 -5z m54 -140 c32 -8 88 -28 125 -44 l66 -28
-83 -6 c-46 -4 -141 -22 -213 -40 -118 -31 -131 -33 -142 -18 -31 41 4 92 92
132 49 23 80 23 155 4z m-430 -265 c11 -11 20 -27 20 -35 0 -32 -41 -92 -105
-155 -64 -63 -67 -64 -81 -45 -58 78 -30 195 58 238 45 22 84 21 108 -3z
m-266 -220 c14 -17 30 -48 35 -68 6 -20 17 -57 24 -82 11 -38 11 -50 0 -78
-20 -49 -43 -38 -72 33 -26 66 -42 225 -23 225 5 0 22 -14 36 -30z"/>
<path d="M10295 3873 c-26 -83 -31 -205 -11 -295 32 -145 136 -273 282 -344
64 -32 87 -38 160 -42 107 -6 161 9 220 61 67 59 89 107 89 197 0 58 -5 84
-22 115 -90 168 -337 227 -446 106 -32 -35 -67 -118 -67 -158 0 -24 -18 -14
-63 37 -81 90 -113 189 -101 313 5 55 4 67 -8 67 -9 0 -22 -23 -33 -57z m511
-362 c87 -44 174 -115 174 -144 0 -21 -26 -46 -57 -53 -38 -10 -175 39 -274
98 -86 51 -87 51 -78 82 23 80 97 85 235 17z"/>
<path d="M6003 3903 c-31 -6 -63 -50 -63 -85 0 -17 10 -48 22 -69 l22 -39 -20
-27 c-35 -46 -50 -50 -80 -23 -39 37 -46 64 -29 113 8 23 15 52 15 64 0 27
-44 63 -79 63 -34 0 -91 -35 -92 -57 -3 -46 4 -71 31 -109 l28 -42 -19 -31
c-25 -41 -41 -39 -74 9 -23 33 -27 47 -22 81 7 54 -8 84 -52 105 -34 16 -37
16 -81 -7 -65 -35 -67 -68 -5 -140 50 -59 58 -101 19 -107 -30 -4 -71 43 -91
104 -9 30 -25 63 -35 74 -46 49 -148 3 -148 -67 0 -36 10 -48 95 -121 36 -30
37 -34 23 -49 -26 -26 -65 -8 -136 64 -62 62 -67 65 -104 60 -56 -8 -78 -31
-78 -84 0 -26 5 -45 13 -47 89 -26 116 -43 202 -130 74 -75 90 -97 91 -123 1
-19 13 -47 30 -69 56 -70 60 -79 46 -118 -18 -49 -9 -69 50 -112 47 -35 49
-38 32 -51 -11 -8 -50 -24 -89 -36 -91 -28 -217 -30 -296 -3 -49 17 -59 17
-84 5 -48 -24 -64 -57 -85 -179 -40 -240 -50 -463 -30 -671 70 -710 424 -1311
999 -1692 46 -31 89 -53 95 -50 125 74 418 359 549 534 231 309 421 688 471
939 79 394 70 759 -26 1063 -21 68 -22 69 -52 63 -135 -28 -231 -37 -321 -33
-92 4 -205 30 -205 47 0 4 32 29 70 55 52 36 69 53 64 64 -19 43 -15 72 15
126 17 30 31 64 31 76 0 11 12 33 28 48 15 14 44 45 65 69 54 62 103 92 147
92 27 0 47 9 78 36 50 42 55 77 17 118 -38 41 -41 40 -184 -56 -14 -10 -36
-18 -48 -18 -39 0 -28 36 25 75 26 20 50 43 55 50 18 34 -47 115 -93 115 -50
0 -67 -16 -90 -85 -22 -65 -40 -85 -78 -85 -37 0 -33 29 8 74 43 47 48 71 25
116 -18 35 -43 50 -83 50 -42 0 -62 -29 -73 -106 -12 -86 -43 -125 -83 -106
-14 6 -30 21 -36 32 -10 19 -7 26 24 55 31 29 36 40 36 79 0 36 -5 50 -27 71
-38 34 -76 33 -113 -5 -33 -33 -37 -64 -18 -116 10 -29 9 -35 -21 -73 -38 -47
-49 -50 -79 -18 -28 30 -29 80 -2 107 22 22 27 78 10 110 -8 16 -63 42 -79 39
-3 -1 -16 -4 -28 -6z m66 -347 c46 -67 67 -68 124 -7 16 17 32 31 37 31 4 0
13 -15 19 -32 7 -18 23 -50 37 -72 26 -38 26 -38 77 -32 l52 7 -53 -26 c-69
-32 -86 -32 -112 5 -27 38 -50 38 -92 1 l-34 -29 -22 34 c-27 41 -53 44 -102
11 -57 -38 -69 -39 -94 -12 -33 35 -75 33 -111 -5 -34 -35 -46 -37 -70 -10
-18 19 -18 19 -48 -6 -28 -24 -34 -25 -111 -18 -45 3 -82 7 -83 8 -2 1 5 12
13 25 15 20 21 22 83 15 65 -6 69 -5 88 20 17 21 28 25 59 23 35 -2 40 1 56
35 10 20 22 39 27 42 16 10 90 -24 96 -45 12 -36 45 -16 88 54 24 38 41 34 76
-17z m146 -465 c126 -29 125 -29 89 -51 -26 -17 -57 -20 -231 -25 -197 -6
-301 1 -388 26 l-40 12 52 24 c29 13 71 28 95 33 72 15 322 4 423 -19z m-690
-349 l30 -9 -29 -8 c-28 -8 -446 1 -454 10 -2 2 -1 9 3 15 9 15 403 8 450 -8z
m1429 2 c4 -9 4 -19 1 -23 -4 -3 -247 -6 -541 -5 -451 0 -537 2 -544 14 -5 8
-6 18 -4 22 3 4 247 8 544 8 490 0 538 -1 544 -16z m-1054 -125 c122 -62 156
-85 217 -145 88 -86 117 -144 133 -269 23 -173 28 -201 54 -289 14 -48 26
-108 26 -132 0 -90 167 -343 227 -345 10 0 -4 -9 -31 -20 -64 -26 -130 -72
-161 -112 -33 -45 -56 -111 -49 -146 9 -41 -20 -94 -75 -139 -64 -53 -77 -60
-52 -25 38 51 38 98 -2 173 -35 67 -45 100 -72 255 -22 121 -54 179 -122 217
-43 24 -62 45 -107 116 l-55 87 39 7 c71 12 122 51 104 79 -8 13 -45 10 -74
-6 -14 -8 -30 -14 -36 -15 -6 0 -59 45 -118 100 -85 81 -111 100 -136 100 -54
0 -74 -66 -44 -144 13 -34 -17 -14 -36 25 -18 34 -19 46 -11 71 6 17 11 48 11
69 0 46 -18 59 -82 60 -39 0 -41 1 -18 10 45 18 199 -27 273 -79 49 -35 137
-57 137 -34 0 6 -27 29 -59 52 l-59 42 35 60 c25 42 32 63 25 70 -10 10 -20 6
-78 -37 -19 -14 -68 26 -72 58 -2 14 11 53 29 88 29 58 32 72 34 173 3 87 0
116 -12 135 -14 22 -12 22 29 -6 23 -17 108 -63 188 -104z m1075 11 c4 -7
-107 -11 -324 -12 -538 -4 -524 -4 -528 10 -6 16 842 18 852 2z m-55 -99 l75
-6 -65 -8 c-156 -18 -711 -6 -625 14 38 8 514 9 615 0z m-137 -91 c194 0 217
-2 217 -16 0 -13 -7 -15 -31 -10 -17 3 -173 6 -345 6 -285 0 -314 2 -314 17 0
14 13 15 128 10 70 -4 225 -7 345 -7z m-1360 -77 c71 -4 97 -10 97 -20 0 -28
-457 -13 -509 17 -19 11 263 13 412 3z m1432 -15 c121 -12 126 -13 75 -19 -73
-9 -354 -11 -468 -3 -67 5 -92 11 -92 20 0 18 301 19 485 2z m-1155 -647 c0
-25 -250 -33 -492 -17 -212 14 -127 26 187 26 183 0 305 -4 305 -9z m214 -95
l50 -44 -22 -88 c-11 -49 -24 -106 -28 -127 -3 -20 -11 -40 -16 -43 -5 -4 -29
8 -53 25 -52 38 -94 40 -190 10 -54 -16 -76 -30 -114 -70 -67 -70 -106 -65
-61 9 23 37 75 72 107 72 12 0 57 11 100 25 43 14 88 25 101 25 24 0 26 7 13
64 -14 57 23 187 52 186 7 -1 34 -20 61 -44z m160 -571 c5 -13 -37 -15 -356
-13 -278 2 -362 6 -366 16 -3 9 73 12 356 12 312 0 361 -2 366 -15z m-75 -91
c3 -2 -2 -10 -10 -17 -11 -11 -61 -11 -269 -1 -322 16 -329 17 -190 25 119 7
460 2 469 -7z"/>
<path d="M1475 3850 c-4 -6 7 -26 24 -46 41 -46 39 -68 -6 -98 -66 -43 -497
-266 -514 -266 -17 0 -73 56 -81 81 -2 7 -11 10 -20 6 -14 -5 1 -39 86 -199
61 -115 108 -193 116 -193 8 0 13 7 11 15 -2 8 -9 33 -15 54 -10 37 -9 40 19
63 17 13 174 101 350 195 176 93 322 172 324 174 2 2 -2 11 -9 19 -20 24 -258
205 -269 205 -6 0 -13 -5 -16 -10z"/>
<path d="M7743 3813 c-3 -16 -44 -179 -89 -363 l-82 -335 29 -26 29 -26 -11
-74 c-6 -41 -18 -93 -26 -117 -13 -36 -18 -42 -36 -37 -38 11 -74 64 -93 133
-11 43 -19 126 -24 232 -6 175 -20 234 -32 145 -3 -27 -7 -199 -7 -381 l-1
-332 30 -12 30 -12 0 -145 c0 -127 2 -144 16 -141 21 4 159 303 179 388 8 36
20 85 25 109 6 24 42 123 80 220 113 292 117 328 34 315 -33 -5 -45 -3 -49 8
-3 7 4 110 15 228 11 118 20 223 20 233 0 28 -29 20 -37 -10z"/>
<path d="M2748 3809 c-29 -16 -21 -44 19 -70 42 -27 78 -83 94 -146 7 -27 18
-45 30 -48 43 -14 54 -51 51 -168 -3 -117 4 -138 55 -158 12 -4 36 -37 58 -81
77 -153 191 -302 263 -344 25 -15 88 -68 141 -118 125 -120 175 -153 258 -172
37 -9 95 -25 128 -35 95 -30 175 -25 367 23 163 40 168 41 188 23 11 -10 20
-26 20 -36 0 -15 -6 -17 -35 -12 l-35 6 0 -60 c0 -55 3 -63 38 -101 48 -52 90
-56 145 -14 81 62 73 111 -11 68 -95 -48 -124 -27 -73 52 36 57 39 82 11 107
-11 10 -20 26 -20 35 0 29 -23 40 -81 40 -32 0 -60 4 -63 9 -10 16 15 114 49
186 17 39 57 104 89 145 31 41 59 86 63 100 4 15 -3 49 -16 88 -20 54 -21 67
-11 93 8 18 11 55 8 100 -6 81 -39 154 -118 261 -58 78 -101 109 -225 157 -85
33 -97 35 -210 36 -118 0 -121 -1 -198 -37 -130 -63 -238 -182 -277 -306 -35
-110 -35 -157 -1 -259 38 -116 53 -144 91 -176 l30 -26 -26 -30 c-32 -38 -60
-39 -132 -6 -30 14 -67 25 -83 25 -54 0 -84 53 -58 101 10 19 8 20 -24 14 -28
-6 -39 -3 -56 14 -23 23 -27 61 -9 79 7 7 27 12 44 12 l33 0 -26 48 c-37 67
-52 82 -85 82 -24 0 -28 4 -28 29 0 16 -7 35 -17 42 -16 14 -43 69 -43 88 0
22 45 51 89 56 25 4 64 13 86 21 35 13 44 22 68 77 16 36 25 70 21 80 -5 14
-16 8 -64 -34 -45 -39 -63 -49 -80 -44 -30 10 -19 29 19 33 26 3 35 10 47 38
15 35 11 74 -6 74 -5 0 -12 -4 -15 -10 -11 -18 -40 -11 -75 20 -23 19 -46 29
-67 30 -39 0 -41 -10 -13 -75 20 -46 19 -65 -2 -65 -6 0 -31 23 -56 50 -25 28
-54 50 -64 50 -17 0 -18 -5 -12 -50 6 -43 4 -50 -11 -50 -30 0 -84 64 -91 109
-6 38 -9 41 -38 41 -17 0 -39 -5 -48 -11z m1157 -85 c9 -4 21 -18 26 -31 8
-21 15 -24 56 -23 96 0 113 -2 113 -12 0 -14 -71 -78 -86 -78 -6 0 -28 14 -49
30 -40 32 -52 35 -75 21 -10 -7 -18 -4 -27 8 -11 17 -25 24 -88 46 -17 6 -15
10 20 26 41 19 81 24 110 13z m312 -140 c12 -3 24 -11 26 -18 8 -19 -4 -66
-17 -66 -6 0 -32 -22 -57 -50 -25 -27 -50 -50 -55 -50 -5 1 -18 15 -29 33 -32
51 -64 44 -94 -20 -21 -45 -29 -53 -53 -53 -23 0 -29 6 -39 39 -6 22 -9 46 -6
53 2 8 48 27 101 42 69 21 106 38 133 62 39 34 52 38 90 28z m-384 -42 c18
-31 18 -34 3 -51 -12 -13 -16 -34 -15 -69 2 -50 -11 -82 -35 -82 -7 0 -33 13
-59 30 -43 27 -47 33 -47 70 0 52 21 92 62 119 43 28 68 23 91 -17z m-223
-162 c-14 -26 -8 -36 27 -45 43 -10 53 -24 53 -70 0 -73 -25 -79 -133 -30 -54
25 -56 27 -42 48 7 12 19 45 26 72 15 63 34 101 56 114 16 8 18 5 21 -29 2
-22 -2 -49 -8 -60z m770 -5 l47 -61 -11 -73 -11 -72 -55 39 c-30 22 -69 59
-86 83 -46 66 -50 77 -17 47 36 -34 58 -35 78 -4 20 30 6 66 -25 66 -22 0 -34
15 -25 31 17 26 59 3 105 -56z m-738 -245 c37 0 69 -5 76 -12 17 -17 15 -68
-5 -90 -24 -26 -57 -22 -91 12 -17 16 -42 34 -56 40 -20 7 -26 16 -26 40 0 27
2 30 19 20 11 -5 48 -10 83 -10z"/>
<path d="M9778 3782 c-58 -35 -74 -116 -35 -173 81 -121 265 -39 227 101 -15
56 -60 90 -118 90 -26 0 -59 -8 -74 -18z"/>
<path d="M2148 3662 c-53 -32 -72 -105 -43 -166 30 -63 118 -86 182 -46 36 21
50 43 53 80 5 62 -1 83 -34 116 -29 29 -40 34 -82 34 -28 0 -61 -8 -76 -18z"/>
<path d="M9592 3504 c-32 -22 -52 -66 -52 -114 0 -91 113 -151 193 -101 41 25
57 58 57 117 0 39 -5 51 -34 80 -30 30 -40 34 -88 34 -32 0 -62 -6 -76 -16z"/>
<path d="M2343 3390 c-59 -35 -78 -101 -47 -165 25 -53 65 -72 141 -67 33 3
81 49 94 90 32 110 -90 202 -188 142z"/>
<path d="M9398 3245 c-37 -21 -58 -64 -58 -121 0 -39 5 -51 34 -80 30 -30 40
-34 85 -34 84 0 131 46 131 130 0 32 -7 48 -33 76 -28 31 -41 37 -83 40 -32 3
-58 -1 -76 -11z"/>
<path d="M1866 3188 c-51 -14 -121 -84 -135 -134 -6 -22 -11 -64 -11 -96 l0
-56 -52 20 c-107 40 -212 13 -269 -70 -36 -53 -39 -144 -6 -215 55 -120 160
-197 270 -197 136 0 224 89 242 247 l7 61 40 -14 c158 -55 291 66 249 226 -42
158 -199 264 -335 228z m226 -138 c26 -27 30 -36 25 -67 -10 -61 -105 -141
-186 -158 l-34 -7 6 75 c3 41 13 90 22 108 40 82 113 103 167 49z m-372 -264
c0 -121 -78 -236 -160 -236 -58 0 -109 61 -96 114 14 55 112 138 190 161 56
17 66 11 66 -39z"/>
<path d="M2564 3140 c-53 -21 -87 -105 -64 -160 21 -52 64 -80 122 -80 43 0
54 4 83 33 102 102 -7 261 -141 207z"/>
<path d="M9902 3067 c-133 -49 -182 -207 -106 -346 61 -113 201 -238 339 -303
87 -40 200 -50 270 -24 96 37 147 140 125 255 -13 71 -47 127 -127 212 -157
166 -369 253 -501 206z m49 -103 c28 -14 249 -182 385 -293 120 -97 148 -146
104 -186 -41 -37 -106 -1 -361 202 -162 129 -197 159 -226 197 -29 37 -29 51
2 82 27 26 41 26 96 -2z"/>
<path d="M9174 2991 c-38 -23 -44 -32 -54 -78 -19 -81 36 -153 116 -153 60 0
97 21 119 66 24 51 15 108 -23 147 -40 39 -112 48 -158 18z"/>
<path d="M2783 2890 c-59 -36 -78 -101 -47 -166 37 -78 151 -91 208 -24 93
111 -38 266 -161 190z"/>
<path d="M8942 2763 c-77 -37 -89 -150 -22 -207 111 -93 266 38 190 161 -36
59 -104 78 -168 46z"/>
<path d="M3022 2664 c-32 -22 -52 -66 -52 -114 0 -86 100 -145 182 -106 45 21
68 63 68 121 0 40 -5 52 -34 81 -30 30 -40 34 -88 34 -32 0 -62 -6 -76 -16z"/>
<path d="M2398 2507 c-75 -40 -140 -75 -144 -79 -3 -4 14 -30 39 -58 90 -100
121 -214 77 -285 -25 -40 -103 -106 -161 -136 -46 -23 -87 -17 -125 18 -22 20
-25 30 -20 61 18 115 18 122 3 146 -19 29 -57 39 -92 26 -56 -21 -71 -134 -28
-216 27 -53 129 -129 200 -150 132 -38 284 23 346 140 17 32 22 58 22 121 0
71 -4 88 -36 155 -20 41 -56 100 -81 131 l-46 56 31 15 32 15 90 -82 c136
-124 191 -144 279 -103 l48 23 -141 138 c-78 75 -145 137 -149 137 -4 0 -69
-33 -144 -73z"/>
<path d="M8662 2532 c-36 -33 -47 -68 -39 -120 14 -83 117 -129 190 -83 41 25
57 58 57 117 0 39 -5 51 -34 80 -30 30 -40 34 -89 34 -47 0 -60 -4 -85 -28z"/>
<path d="M9374 2486 c-61 -19 -107 -59 -140 -118 -37 -68 -40 -167 -7 -240 29
-63 103 -141 161 -168 98 -47 220 -11 278 81 14 23 29 37 34 33 18 -19 50
-136 50 -184 0 -58 -30 -154 -65 -211 -26 -40 -32 -69 -16 -69 21 0 104 110
141 185 78 157 75 305 -8 470 -34 69 -134 170 -199 201 -65 32 -167 41 -229
20z m51 -115 c51 -29 150 -121 205 -190 l30 -39 -26 -31 c-33 -40 -75 -41
-135 -3 -57 37 -169 157 -193 206 -16 34 -16 39 -2 62 22 32 59 31 121 -5z"/>
<path d="M3293 2460 c-59 -36 -78 -101 -47 -166 32 -67 135 -87 193 -38 119
100 -13 285 -146 204z"/>
<path d="M8409 2353 c-76 -47 -79 -168 -5 -217 32 -21 114 -21 144 0 48 33 67
120 38 172 -31 57 -121 80 -177 45z"/>
<path d="M3558 2267 c-35 -29 -48 -58 -48 -102 0 -96 96 -152 186 -109 43 21
64 59 64 120 0 39 -5 51 -34 80 -30 30 -40 34 -87 34 -41 0 -60 -5 -81 -23z"/>
<path d="M8131 2182 c-38 -21 -71 -73 -71 -112 0 -39 33 -91 71 -112 68 -38
158 -1 181 73 33 111 -82 206 -181 151z"/>
<path d="M3874 2120 c-39 -15 -74 -68 -74 -111 0 -84 45 -129 128 -129 48 0
58 4 88 34 29 29 34 41 34 80 0 26 -7 60 -15 75 -25 48 -105 74 -161 51z"/>
<path d="M2962 2044 c-101 -50 -172 -159 -172 -266 0 -108 43 -168 148 -208
l46 -18 -48 -33 c-105 -74 -218 -91 -346 -50 -47 15 -66 17 -71 9 -9 -14 13
-31 83 -63 166 -76 346 -73 487 7 83 47 171 140 212 223 31 64 34 77 34 160 0
104 -18 149 -81 205 -53 46 -93 60 -172 60 -53 0 -79 -6 -120 -26z m238 -59
c24 -28 12 -87 -34 -180 -25 -49 -65 -116 -90 -147 -44 -55 -47 -57 -76 -46
-73 25 -68 115 16 245 55 86 112 143 144 143 15 0 33 -7 40 -15z"/>
<path d="M7853 2039 c-101 -28 -114 -188 -19 -233 47 -22 87 -20 127 7 60 41
77 113 39 174 -29 49 -86 69 -147 52z"/>
<path d="M8732 1993 c-15 -22 -152 -244 -169 -276 -2 -4 3 -10 12 -13 10 -4
23 3 36 20 27 34 55 49 78 41 18 -5 297 -408 335 -483 20 -38 11 -63 -35 -100
-31 -25 -40 -58 -14 -48 15 5 341 221 360 238 5 5 5 12 -2 19 -8 8 -23 5 -53
-11 -68 -35 -50 -54 -330 363 -102 152 -188 276 -192 277 -4 0 -15 -12 -26
-27z"/>
<path d="M4173 1975 c-97 -42 -94 -191 4 -231 50 -21 99 -10 140 31 59 59 42
164 -33 200 -39 18 -69 19 -111 0z"/>
<path d="M7533 1905 c-61 -26 -91 -114 -60 -175 7 -13 28 -35 47 -48 28 -19
44 -23 80 -19 128 14 153 193 34 243 -41 17 -60 17 -101 -1z"/>
<path d="M4483 1855 c-96 -42 -93 -191 4 -231 22 -10 49 -13 72 -9 121 21 147
187 36 239 -40 19 -70 20 -112 1z"/>
<path d="M7199 1787 c-40 -27 -66 -89 -55 -132 4 -15 22 -43 41 -62 29 -29 39
-33 85 -33 46 0 56 4 85 33 43 43 52 79 34 131 -17 50 -67 86 -119 86 -22 0
-51 -9 -71 -23z"/>
<path d="M4105 1285 c-40 -23 -73 -35 -100 -35 -22 0 -55 -9 -72 -20 -43 -26
-43 -55 2 -149 19 -40 35 -87 35 -105 0 -77 122 -124 174 -67 9 10 38 24 64
31 71 20 100 37 118 71 20 39 12 72 -27 121 -37 47 -51 83 -43 113 7 30 -34
75 -68 75 -13 0 -50 -16 -83 -35z"/>
<path d="M7763 1295 c-14 -10 -30 -42 -44 -87 -14 -48 -31 -81 -50 -99 -54
-50 -28 -139 44 -153 18 -3 57 -22 87 -41 102 -65 179 -41 195 60 4 33 17 61
36 83 22 25 29 42 29 75 0 23 -4 47 -8 54 -4 7 -41 26 -82 42 -41 17 -85 42
-97 56 -26 29 -76 34 -110 10z"/>
</g>
</svg>
